G75*
%MOIN*%
%OFA0B0*%
%FSLAX25Y25*%
%IPPOS*%
%LPD*%
%AMOC8*
5,1,8,0,0,1.08239X$1,22.5*
%
%ADD10C,0.00400*%
%ADD11C,0.00600*%
%ADD12C,0.00500*%
%ADD13C,0.00200*%
%ADD14C,0.00700*%
%ADD15R,0.02500X0.03000*%
%ADD16R,0.11000X0.05000*%
%ADD17C,0.00050*%
%ADD18C,0.00300*%
%ADD19C,0.00800*%
D10*
X0017169Y0122000D02*
X0017169Y0126604D01*
X0014867Y0124302D01*
X0017936Y0124302D01*
X0019471Y0126604D02*
X0022540Y0122000D01*
X0022540Y0126604D01*
X0024075Y0125837D02*
X0024842Y0126604D01*
X0026376Y0126604D01*
X0027144Y0125837D01*
X0027144Y0125069D01*
X0024075Y0122000D01*
X0027144Y0122000D01*
X0028678Y0122767D02*
X0029446Y0122000D01*
X0030980Y0122000D01*
X0031748Y0122767D01*
X0031748Y0124302D01*
X0030980Y0125069D01*
X0030213Y0125069D01*
X0028678Y0124302D01*
X0028678Y0126604D01*
X0031748Y0126604D01*
X0019471Y0126604D02*
X0019471Y0122000D01*
X0036397Y0172000D02*
X0034863Y0173535D01*
X0039467Y0173535D01*
X0039467Y0175069D02*
X0039467Y0172000D01*
X0039467Y0176604D02*
X0034863Y0176604D01*
X0036397Y0178906D02*
X0037932Y0176604D01*
X0039467Y0178906D01*
X0054863Y0176604D02*
X0059467Y0176604D01*
X0059467Y0175069D02*
X0059467Y0172000D01*
X0059467Y0173535D02*
X0054863Y0173535D01*
X0056397Y0172000D01*
X0057932Y0176604D02*
X0056397Y0178906D01*
X0057932Y0176604D02*
X0059467Y0178906D01*
X0060238Y0076604D02*
X0059471Y0075837D01*
X0060238Y0076604D02*
X0061773Y0076604D01*
X0062540Y0075837D01*
X0062540Y0075069D01*
X0059471Y0072000D01*
X0062540Y0072000D01*
X0064075Y0072000D02*
X0064075Y0076604D01*
X0066376Y0075069D02*
X0064075Y0073535D01*
X0066376Y0072000D01*
X0057936Y0072000D02*
X0054867Y0072000D01*
X0057936Y0075069D01*
X0057936Y0075837D01*
X0057169Y0076604D01*
X0055634Y0076604D01*
X0054867Y0075837D01*
X0095864Y0055853D02*
X0095864Y0053451D01*
X0097665Y0053451D01*
X0097065Y0054652D01*
X0097065Y0055252D01*
X0097665Y0055853D01*
X0098866Y0055853D01*
X0099467Y0055252D01*
X0099467Y0054051D01*
X0098866Y0053451D01*
X0098866Y0052196D02*
X0098866Y0051596D01*
X0099467Y0051596D01*
X0099467Y0052196D01*
X0098866Y0052196D01*
X0099467Y0052196D02*
X0100668Y0050995D01*
X0099467Y0047312D02*
X0098866Y0047312D01*
X0096464Y0049714D01*
X0095864Y0049714D01*
X0095864Y0047312D01*
X0095864Y0044830D02*
X0099467Y0044830D01*
X0099467Y0043629D02*
X0099467Y0046031D01*
X0099467Y0042348D02*
X0097065Y0042348D01*
X0095864Y0041147D01*
X0097065Y0039946D01*
X0099467Y0039946D01*
X0097665Y0039946D02*
X0097665Y0042348D01*
X0097065Y0043629D02*
X0095864Y0044830D01*
X0097065Y0057134D02*
X0097065Y0057734D01*
X0097665Y0058335D01*
X0097065Y0058935D01*
X0097665Y0059536D01*
X0099467Y0059536D01*
X0099467Y0058335D02*
X0097665Y0058335D01*
X0097065Y0057134D02*
X0099467Y0057134D01*
X0099467Y0060817D02*
X0097065Y0060817D01*
X0097065Y0061417D01*
X0097665Y0062018D01*
X0097065Y0062618D01*
X0097665Y0063219D01*
X0099467Y0063219D01*
X0099467Y0062018D02*
X0097665Y0062018D01*
D11*
X0108667Y0063800D02*
X0114667Y0063800D01*
X0114667Y0067300D01*
X0122167Y0067300D01*
X0122167Y0026300D01*
X0114667Y0026300D01*
X0114667Y0029800D01*
X0108667Y0029800D01*
X0108667Y0026300D01*
X0059667Y0026300D01*
X0059667Y0067300D01*
X0108667Y0067300D01*
X0108667Y0063800D01*
X0101567Y0046800D02*
X0101569Y0046974D01*
X0101576Y0047148D01*
X0101586Y0047322D01*
X0101601Y0047496D01*
X0101620Y0047669D01*
X0101644Y0047842D01*
X0101672Y0048014D01*
X0101703Y0048185D01*
X0101740Y0048356D01*
X0101780Y0048525D01*
X0101824Y0048694D01*
X0101873Y0048861D01*
X0101925Y0049027D01*
X0101982Y0049192D01*
X0102043Y0049355D01*
X0102107Y0049517D01*
X0102176Y0049677D01*
X0102249Y0049836D01*
X0102325Y0049992D01*
X0102405Y0050147D01*
X0102489Y0050300D01*
X0102577Y0050450D01*
X0102669Y0050598D01*
X0102764Y0050745D01*
X0102862Y0050888D01*
X0102964Y0051029D01*
X0103070Y0051168D01*
X0103179Y0051304D01*
X0103291Y0051438D01*
X0103406Y0051568D01*
X0103525Y0051696D01*
X0103647Y0051820D01*
X0103771Y0051942D01*
X0103899Y0052061D01*
X0104029Y0052176D01*
X0104163Y0052288D01*
X0104299Y0052397D01*
X0104438Y0052503D01*
X0104579Y0052605D01*
X0104722Y0052703D01*
X0104869Y0052798D01*
X0105017Y0052890D01*
X0105167Y0052978D01*
X0105320Y0053062D01*
X0105475Y0053142D01*
X0105631Y0053218D01*
X0105790Y0053291D01*
X0105950Y0053360D01*
X0106112Y0053424D01*
X0106275Y0053485D01*
X0106440Y0053542D01*
X0106606Y0053594D01*
X0106773Y0053643D01*
X0106942Y0053687D01*
X0107111Y0053727D01*
X0107282Y0053764D01*
X0107453Y0053795D01*
X0107625Y0053823D01*
X0107798Y0053847D01*
X0107971Y0053866D01*
X0108145Y0053881D01*
X0108319Y0053891D01*
X0108493Y0053898D01*
X0108667Y0053900D01*
X0108841Y0053898D01*
X0109015Y0053891D01*
X0109189Y0053881D01*
X0109363Y0053866D01*
X0109536Y0053847D01*
X0109709Y0053823D01*
X0109881Y0053795D01*
X0110052Y0053764D01*
X0110223Y0053727D01*
X0110392Y0053687D01*
X0110561Y0053643D01*
X0110728Y0053594D01*
X0110894Y0053542D01*
X0111059Y0053485D01*
X0111222Y0053424D01*
X0111384Y0053360D01*
X0111544Y0053291D01*
X0111703Y0053218D01*
X0111859Y0053142D01*
X0112014Y0053062D01*
X0112167Y0052978D01*
X0112317Y0052890D01*
X0112465Y0052798D01*
X0112612Y0052703D01*
X0112755Y0052605D01*
X0112896Y0052503D01*
X0113035Y0052397D01*
X0113171Y0052288D01*
X0113305Y0052176D01*
X0113435Y0052061D01*
X0113563Y0051942D01*
X0113687Y0051820D01*
X0113809Y0051696D01*
X0113928Y0051568D01*
X0114043Y0051438D01*
X0114155Y0051304D01*
X0114264Y0051168D01*
X0114370Y0051029D01*
X0114472Y0050888D01*
X0114570Y0050745D01*
X0114665Y0050598D01*
X0114757Y0050450D01*
X0114845Y0050300D01*
X0114929Y0050147D01*
X0115009Y0049992D01*
X0115085Y0049836D01*
X0115158Y0049677D01*
X0115227Y0049517D01*
X0115291Y0049355D01*
X0115352Y0049192D01*
X0115409Y0049027D01*
X0115461Y0048861D01*
X0115510Y0048694D01*
X0115554Y0048525D01*
X0115594Y0048356D01*
X0115631Y0048185D01*
X0115662Y0048014D01*
X0115690Y0047842D01*
X0115714Y0047669D01*
X0115733Y0047496D01*
X0115748Y0047322D01*
X0115758Y0047148D01*
X0115765Y0046974D01*
X0115767Y0046800D01*
X0115765Y0046626D01*
X0115758Y0046452D01*
X0115748Y0046278D01*
X0115733Y0046104D01*
X0115714Y0045931D01*
X0115690Y0045758D01*
X0115662Y0045586D01*
X0115631Y0045415D01*
X0115594Y0045244D01*
X0115554Y0045075D01*
X0115510Y0044906D01*
X0115461Y0044739D01*
X0115409Y0044573D01*
X0115352Y0044408D01*
X0115291Y0044245D01*
X0115227Y0044083D01*
X0115158Y0043923D01*
X0115085Y0043764D01*
X0115009Y0043608D01*
X0114929Y0043453D01*
X0114845Y0043300D01*
X0114757Y0043150D01*
X0114665Y0043002D01*
X0114570Y0042855D01*
X0114472Y0042712D01*
X0114370Y0042571D01*
X0114264Y0042432D01*
X0114155Y0042296D01*
X0114043Y0042162D01*
X0113928Y0042032D01*
X0113809Y0041904D01*
X0113687Y0041780D01*
X0113563Y0041658D01*
X0113435Y0041539D01*
X0113305Y0041424D01*
X0113171Y0041312D01*
X0113035Y0041203D01*
X0112896Y0041097D01*
X0112755Y0040995D01*
X0112612Y0040897D01*
X0112465Y0040802D01*
X0112317Y0040710D01*
X0112167Y0040622D01*
X0112014Y0040538D01*
X0111859Y0040458D01*
X0111703Y0040382D01*
X0111544Y0040309D01*
X0111384Y0040240D01*
X0111222Y0040176D01*
X0111059Y0040115D01*
X0110894Y0040058D01*
X0110728Y0040006D01*
X0110561Y0039957D01*
X0110392Y0039913D01*
X0110223Y0039873D01*
X0110052Y0039836D01*
X0109881Y0039805D01*
X0109709Y0039777D01*
X0109536Y0039753D01*
X0109363Y0039734D01*
X0109189Y0039719D01*
X0109015Y0039709D01*
X0108841Y0039702D01*
X0108667Y0039700D01*
X0108493Y0039702D01*
X0108319Y0039709D01*
X0108145Y0039719D01*
X0107971Y0039734D01*
X0107798Y0039753D01*
X0107625Y0039777D01*
X0107453Y0039805D01*
X0107282Y0039836D01*
X0107111Y0039873D01*
X0106942Y0039913D01*
X0106773Y0039957D01*
X0106606Y0040006D01*
X0106440Y0040058D01*
X0106275Y0040115D01*
X0106112Y0040176D01*
X0105950Y0040240D01*
X0105790Y0040309D01*
X0105631Y0040382D01*
X0105475Y0040458D01*
X0105320Y0040538D01*
X0105167Y0040622D01*
X0105017Y0040710D01*
X0104869Y0040802D01*
X0104722Y0040897D01*
X0104579Y0040995D01*
X0104438Y0041097D01*
X0104299Y0041203D01*
X0104163Y0041312D01*
X0104029Y0041424D01*
X0103899Y0041539D01*
X0103771Y0041658D01*
X0103647Y0041780D01*
X0103525Y0041904D01*
X0103406Y0042032D01*
X0103291Y0042162D01*
X0103179Y0042296D01*
X0103070Y0042432D01*
X0102964Y0042571D01*
X0102862Y0042712D01*
X0102764Y0042855D01*
X0102669Y0043002D01*
X0102577Y0043150D01*
X0102489Y0043300D01*
X0102405Y0043453D01*
X0102325Y0043608D01*
X0102249Y0043764D01*
X0102176Y0043923D01*
X0102107Y0044083D01*
X0102043Y0044245D01*
X0101982Y0044408D01*
X0101925Y0044573D01*
X0101873Y0044739D01*
X0101824Y0044906D01*
X0101780Y0045075D01*
X0101740Y0045244D01*
X0101703Y0045415D01*
X0101672Y0045586D01*
X0101644Y0045758D01*
X0101620Y0045931D01*
X0101601Y0046104D01*
X0101586Y0046278D01*
X0101576Y0046452D01*
X0101569Y0046626D01*
X0101567Y0046800D01*
X0079237Y0103168D02*
X0074967Y0107438D01*
X0074967Y0105303D02*
X0079237Y0105303D01*
X0079237Y0107438D02*
X0074967Y0103168D01*
X0077102Y0103168D02*
X0077102Y0107438D01*
X0074467Y0121400D02*
X0074467Y0125600D01*
X0074467Y0128000D01*
X0074467Y0132200D01*
X0074467Y0128000D02*
X0074398Y0127998D01*
X0074330Y0127992D01*
X0074262Y0127982D01*
X0074195Y0127969D01*
X0074129Y0127951D01*
X0074064Y0127930D01*
X0074000Y0127905D01*
X0073938Y0127877D01*
X0073877Y0127845D01*
X0073818Y0127810D01*
X0073762Y0127771D01*
X0073707Y0127729D01*
X0073656Y0127684D01*
X0073606Y0127636D01*
X0073560Y0127586D01*
X0073517Y0127533D01*
X0073476Y0127477D01*
X0073439Y0127420D01*
X0073406Y0127360D01*
X0073375Y0127298D01*
X0073349Y0127235D01*
X0073326Y0127171D01*
X0073306Y0127105D01*
X0073291Y0127038D01*
X0073279Y0126971D01*
X0073271Y0126903D01*
X0073267Y0126834D01*
X0073267Y0126766D01*
X0073271Y0126697D01*
X0073279Y0126629D01*
X0073291Y0126562D01*
X0073306Y0126495D01*
X0073326Y0126429D01*
X0073349Y0126365D01*
X0073375Y0126302D01*
X0073406Y0126240D01*
X0073439Y0126180D01*
X0073476Y0126123D01*
X0073517Y0126067D01*
X0073560Y0126014D01*
X0073606Y0125964D01*
X0073656Y0125916D01*
X0073707Y0125871D01*
X0073762Y0125829D01*
X0073818Y0125790D01*
X0073877Y0125755D01*
X0073938Y0125723D01*
X0074000Y0125695D01*
X0074064Y0125670D01*
X0074129Y0125649D01*
X0074195Y0125631D01*
X0074262Y0125618D01*
X0074330Y0125608D01*
X0074398Y0125602D01*
X0074467Y0125600D01*
X0079967Y0138168D02*
X0084237Y0142438D01*
X0082102Y0142438D02*
X0082102Y0138168D01*
X0084237Y0138168D02*
X0079967Y0142438D01*
X0079967Y0140303D02*
X0084237Y0140303D01*
X0054867Y0132200D02*
X0054867Y0121400D01*
X0044237Y0138168D02*
X0039967Y0142438D01*
X0039967Y0140303D02*
X0044237Y0140303D01*
X0044237Y0142438D02*
X0039967Y0138168D01*
X0039667Y0138300D02*
X0039667Y0130800D01*
X0039541Y0130798D01*
X0039416Y0130792D01*
X0039291Y0130782D01*
X0039166Y0130768D01*
X0039041Y0130751D01*
X0038917Y0130729D01*
X0038794Y0130704D01*
X0038672Y0130674D01*
X0038551Y0130641D01*
X0038431Y0130604D01*
X0038312Y0130564D01*
X0038195Y0130519D01*
X0038078Y0130471D01*
X0037964Y0130419D01*
X0037851Y0130364D01*
X0037740Y0130305D01*
X0037631Y0130243D01*
X0037524Y0130177D01*
X0037419Y0130108D01*
X0037316Y0130036D01*
X0037215Y0129961D01*
X0037117Y0129882D01*
X0037022Y0129800D01*
X0036929Y0129716D01*
X0036839Y0129628D01*
X0036751Y0129538D01*
X0036667Y0129445D01*
X0036585Y0129350D01*
X0036506Y0129252D01*
X0036431Y0129151D01*
X0036359Y0129048D01*
X0036290Y0128943D01*
X0036224Y0128836D01*
X0036162Y0128727D01*
X0036103Y0128616D01*
X0036048Y0128503D01*
X0035996Y0128389D01*
X0035948Y0128272D01*
X0035903Y0128155D01*
X0035863Y0128036D01*
X0035826Y0127916D01*
X0035793Y0127795D01*
X0035763Y0127673D01*
X0035738Y0127550D01*
X0035716Y0127426D01*
X0035699Y0127301D01*
X0035685Y0127176D01*
X0035675Y0127051D01*
X0035669Y0126926D01*
X0035667Y0126800D01*
X0035669Y0126674D01*
X0035675Y0126549D01*
X0035685Y0126424D01*
X0035699Y0126299D01*
X0035716Y0126174D01*
X0035738Y0126050D01*
X0035763Y0125927D01*
X0035793Y0125805D01*
X0035826Y0125684D01*
X0035863Y0125564D01*
X0035903Y0125445D01*
X0035948Y0125328D01*
X0035996Y0125211D01*
X0036048Y0125097D01*
X0036103Y0124984D01*
X0036162Y0124873D01*
X0036224Y0124764D01*
X0036290Y0124657D01*
X0036359Y0124552D01*
X0036431Y0124449D01*
X0036506Y0124348D01*
X0036585Y0124250D01*
X0036667Y0124155D01*
X0036751Y0124062D01*
X0036839Y0123972D01*
X0036929Y0123884D01*
X0037022Y0123800D01*
X0037117Y0123718D01*
X0037215Y0123639D01*
X0037316Y0123564D01*
X0037419Y0123492D01*
X0037524Y0123423D01*
X0037631Y0123357D01*
X0037740Y0123295D01*
X0037851Y0123236D01*
X0037964Y0123181D01*
X0038078Y0123129D01*
X0038195Y0123081D01*
X0038312Y0123036D01*
X0038431Y0122996D01*
X0038551Y0122959D01*
X0038672Y0122926D01*
X0038794Y0122896D01*
X0038917Y0122871D01*
X0039041Y0122849D01*
X0039166Y0122832D01*
X0039291Y0122818D01*
X0039416Y0122808D01*
X0039541Y0122802D01*
X0039667Y0122800D01*
X0039667Y0115300D01*
X0009667Y0115300D01*
X0009667Y0138300D01*
X0039667Y0138300D01*
X0042102Y0138168D02*
X0042102Y0142438D01*
X0030667Y0092800D02*
X0008667Y0092800D01*
X0008667Y0080800D01*
X0030667Y0080800D01*
X0030667Y0092800D01*
X0030667Y0072800D02*
X0008667Y0072800D01*
X0008667Y0060800D01*
X0030667Y0060800D01*
X0030667Y0072800D01*
X0030667Y0052800D02*
X0008667Y0052800D01*
X0008667Y0040800D01*
X0030667Y0040800D01*
X0030667Y0052800D01*
X0028667Y0027800D02*
X0028667Y0005800D01*
X0040667Y0005800D01*
X0040667Y0027800D01*
X0028667Y0027800D01*
X0020667Y0027800D02*
X0020667Y0005800D01*
X0008667Y0005800D01*
X0008667Y0027800D01*
X0020667Y0027800D01*
X0044967Y0058168D02*
X0049237Y0062438D01*
X0049967Y0062438D02*
X0054237Y0058168D01*
X0054237Y0060303D02*
X0049967Y0060303D01*
X0049237Y0060303D02*
X0044967Y0060303D01*
X0044967Y0062438D02*
X0049237Y0058168D01*
X0049967Y0058168D02*
X0054237Y0062438D01*
X0052102Y0062438D02*
X0052102Y0058168D01*
X0047102Y0058168D02*
X0047102Y0062438D01*
X0041502Y0192100D02*
X0035096Y0192100D01*
X0035096Y0195303D01*
X0036164Y0196370D01*
X0038299Y0196370D01*
X0039367Y0195303D01*
X0039367Y0192100D01*
X0038299Y0198545D02*
X0037232Y0199613D01*
X0037232Y0202816D01*
X0036164Y0202816D02*
X0039367Y0202816D01*
X0039367Y0199613D01*
X0038299Y0198545D01*
X0035096Y0201748D02*
X0036164Y0202816D01*
X0035096Y0201748D02*
X0035096Y0199613D01*
X0035096Y0204991D02*
X0038299Y0204991D01*
X0039367Y0206059D01*
X0039367Y0209261D01*
X0035096Y0209261D01*
X0032961Y0211436D02*
X0032961Y0212504D01*
X0039367Y0212504D01*
X0039367Y0211436D02*
X0039367Y0213572D01*
X0039367Y0215733D02*
X0038299Y0215733D01*
X0038299Y0216801D01*
X0039367Y0216801D01*
X0039367Y0215733D01*
X0039367Y0218956D02*
X0035096Y0218956D01*
X0035096Y0220024D01*
X0036164Y0221091D01*
X0035096Y0222159D01*
X0036164Y0223227D01*
X0039367Y0223227D01*
X0039367Y0221091D02*
X0036164Y0221091D01*
X0038299Y0225402D02*
X0037232Y0226469D01*
X0037232Y0229672D01*
X0036164Y0229672D02*
X0039367Y0229672D01*
X0039367Y0226469D01*
X0038299Y0225402D01*
X0035096Y0228604D02*
X0036164Y0229672D01*
X0035096Y0228604D02*
X0035096Y0226469D01*
X0035096Y0231847D02*
X0035096Y0235050D01*
X0036164Y0236118D01*
X0039367Y0236118D01*
X0038299Y0238293D02*
X0036164Y0238293D01*
X0035096Y0239360D01*
X0035096Y0242563D01*
X0032961Y0242563D02*
X0039367Y0242563D01*
X0039367Y0239360D01*
X0038299Y0238293D01*
X0038299Y0244738D02*
X0037232Y0245806D01*
X0037232Y0249009D01*
X0036164Y0249009D02*
X0039367Y0249009D01*
X0039367Y0245806D01*
X0038299Y0244738D01*
X0035096Y0247941D02*
X0036164Y0249009D01*
X0035096Y0247941D02*
X0035096Y0245806D01*
X0032961Y0251184D02*
X0032961Y0252251D01*
X0039367Y0252251D01*
X0039367Y0251184D02*
X0039367Y0253319D01*
X0038299Y0255481D02*
X0039367Y0256548D01*
X0039367Y0258683D01*
X0038299Y0259751D01*
X0037232Y0258683D02*
X0035096Y0258683D01*
X0035096Y0256548D01*
X0037232Y0256548D01*
X0037232Y0258683D01*
X0036164Y0259751D01*
X0034029Y0259751D01*
X0032961Y0258683D01*
X0032961Y0256548D01*
X0034029Y0255481D01*
X0038299Y0255481D01*
X0038299Y0261926D02*
X0036164Y0261926D01*
X0035096Y0262994D01*
X0035096Y0266197D01*
X0040434Y0266197D01*
X0041502Y0265129D01*
X0041502Y0264061D01*
X0039367Y0262994D02*
X0039367Y0266197D01*
X0039367Y0268372D02*
X0035096Y0268372D01*
X0035096Y0269439D01*
X0036164Y0270507D01*
X0035096Y0271574D01*
X0036164Y0272642D01*
X0039367Y0272642D01*
X0039367Y0270507D02*
X0036164Y0270507D01*
X0038299Y0274817D02*
X0037232Y0275885D01*
X0037232Y0279088D01*
X0036164Y0279088D02*
X0039367Y0279088D01*
X0039367Y0275885D01*
X0038299Y0274817D01*
X0035096Y0278020D02*
X0036164Y0279088D01*
X0035096Y0278020D02*
X0035096Y0275885D01*
X0035096Y0281263D02*
X0035096Y0282330D01*
X0039367Y0282330D01*
X0039367Y0281263D02*
X0039367Y0283398D01*
X0039367Y0285560D02*
X0039367Y0287695D01*
X0039367Y0286627D02*
X0032961Y0286627D01*
X0032961Y0285560D01*
X0032961Y0282330D02*
X0031894Y0282330D01*
X0024237Y0277438D02*
X0019967Y0273168D01*
X0019967Y0275303D02*
X0024237Y0275303D01*
X0024237Y0273168D02*
X0019967Y0277438D01*
X0022102Y0277438D02*
X0022102Y0273168D01*
X0038299Y0261926D02*
X0039367Y0262994D01*
X0039367Y0231847D02*
X0035096Y0231847D01*
D12*
X0007417Y0007050D02*
X0002913Y0007050D01*
X0002913Y0010053D01*
X0002913Y0011654D02*
X0007417Y0014656D01*
X0007417Y0011654D02*
X0002913Y0014656D01*
X0002913Y0016258D02*
X0002913Y0019260D01*
X0002913Y0017759D02*
X0007417Y0017759D01*
X0005165Y0020862D02*
X0005165Y0023864D01*
X0005915Y0025466D02*
X0007417Y0026967D01*
X0005915Y0028468D01*
X0002913Y0028468D01*
X0003663Y0030070D02*
X0006666Y0030070D01*
X0007417Y0030820D01*
X0007417Y0032322D01*
X0006666Y0033072D01*
X0006666Y0034674D02*
X0007417Y0035424D01*
X0007417Y0036925D01*
X0006666Y0037676D01*
X0006666Y0034674D02*
X0003663Y0034674D01*
X0002913Y0035424D01*
X0002913Y0036925D01*
X0003663Y0037676D01*
X0003663Y0033072D02*
X0002913Y0032322D01*
X0002913Y0030820D01*
X0003663Y0030070D01*
X0002913Y0025466D02*
X0005915Y0025466D01*
X0007417Y0010053D02*
X0007417Y0007050D01*
X0005165Y0007050D02*
X0005165Y0008551D01*
X0022913Y0007050D02*
X0027417Y0007050D01*
X0027417Y0010053D01*
X0027417Y0011654D02*
X0022913Y0014656D01*
X0022913Y0016258D02*
X0022913Y0019260D01*
X0022913Y0017759D02*
X0027417Y0017759D01*
X0027417Y0014656D02*
X0022913Y0011654D01*
X0022913Y0010053D02*
X0022913Y0007050D01*
X0025165Y0007050D02*
X0025165Y0008551D01*
X0025165Y0020862D02*
X0025165Y0023864D01*
X0023663Y0025466D02*
X0026666Y0025466D01*
X0027417Y0026216D01*
X0027417Y0027718D01*
X0026666Y0028468D01*
X0025165Y0028468D01*
X0025165Y0026967D01*
X0023663Y0028468D02*
X0022913Y0027718D01*
X0022913Y0026216D01*
X0023663Y0025466D01*
X0022913Y0030070D02*
X0027417Y0033072D01*
X0022913Y0033072D01*
X0022913Y0034674D02*
X0022913Y0036925D01*
X0023663Y0037676D01*
X0026666Y0037676D01*
X0027417Y0036925D01*
X0027417Y0034674D01*
X0022913Y0034674D01*
X0022913Y0030070D02*
X0027417Y0030070D01*
X0029083Y0054050D02*
X0028332Y0054801D01*
X0028332Y0057803D01*
X0029083Y0058554D01*
X0030584Y0058554D01*
X0031335Y0057803D01*
X0031335Y0056302D02*
X0029834Y0056302D01*
X0031335Y0056302D02*
X0031335Y0054801D01*
X0030584Y0054050D01*
X0029083Y0054050D01*
X0026731Y0056302D02*
X0023728Y0056302D01*
X0022127Y0057803D02*
X0021376Y0058554D01*
X0019125Y0058554D01*
X0019125Y0054050D01*
X0021376Y0054050D01*
X0022127Y0054801D01*
X0022127Y0057803D01*
X0017523Y0058554D02*
X0014521Y0058554D01*
X0014521Y0054050D01*
X0017523Y0054050D01*
X0016022Y0056302D02*
X0014521Y0056302D01*
X0012919Y0054050D02*
X0009917Y0054050D01*
X0009917Y0058554D01*
X0009917Y0074050D02*
X0012919Y0074050D01*
X0014521Y0074050D02*
X0017523Y0074050D01*
X0016022Y0076302D02*
X0014521Y0076302D01*
X0014521Y0078554D02*
X0014521Y0074050D01*
X0014521Y0078554D02*
X0017523Y0078554D01*
X0019125Y0078554D02*
X0019125Y0074050D01*
X0021376Y0074050D01*
X0022127Y0074801D01*
X0022127Y0077803D01*
X0021376Y0078554D01*
X0019125Y0078554D01*
X0023728Y0076302D02*
X0026731Y0076302D01*
X0028332Y0077803D02*
X0028332Y0074801D01*
X0029083Y0074050D01*
X0030584Y0074050D01*
X0031335Y0074801D01*
X0031335Y0077803D02*
X0030584Y0078554D01*
X0029083Y0078554D01*
X0028332Y0077803D01*
X0032936Y0078554D02*
X0034438Y0078554D01*
X0033687Y0078554D02*
X0033687Y0074050D01*
X0032936Y0074050D02*
X0034438Y0074050D01*
X0035939Y0058554D02*
X0035939Y0054050D01*
X0032936Y0058554D01*
X0032936Y0054050D01*
X0037540Y0054050D02*
X0039792Y0054050D01*
X0040543Y0054801D01*
X0040543Y0057803D01*
X0039792Y0058554D01*
X0037540Y0058554D01*
X0037540Y0054050D01*
X0042707Y0066650D02*
X0042707Y0068552D01*
X0043658Y0068552D01*
X0043975Y0068235D01*
X0043975Y0067601D01*
X0043658Y0067284D01*
X0042707Y0067284D01*
X0043341Y0067284D02*
X0043975Y0066650D01*
X0044917Y0066650D02*
X0046184Y0066650D01*
X0045551Y0066650D02*
X0045551Y0068552D01*
X0044917Y0067918D01*
X0045692Y0080050D02*
X0045692Y0084554D01*
X0047293Y0084554D02*
X0049545Y0084554D01*
X0050296Y0083803D01*
X0050296Y0082302D01*
X0049545Y0081551D01*
X0047293Y0081551D01*
X0047293Y0080050D02*
X0047293Y0084554D01*
X0042689Y0084554D02*
X0045692Y0080050D01*
X0042689Y0080050D02*
X0042689Y0084554D01*
X0034438Y0094050D02*
X0032936Y0094050D01*
X0033687Y0094050D02*
X0033687Y0098554D01*
X0032936Y0098554D02*
X0034438Y0098554D01*
X0031335Y0097803D02*
X0031335Y0094801D01*
X0030584Y0094050D01*
X0028332Y0094050D01*
X0028332Y0098554D01*
X0030584Y0098554D01*
X0031335Y0097803D01*
X0026731Y0096302D02*
X0023728Y0096302D01*
X0022127Y0094801D02*
X0022127Y0097803D01*
X0021376Y0098554D01*
X0019125Y0098554D01*
X0019125Y0094050D01*
X0021376Y0094050D01*
X0022127Y0094801D01*
X0017523Y0094050D02*
X0014521Y0094050D01*
X0014521Y0098554D01*
X0017523Y0098554D01*
X0016022Y0096302D02*
X0014521Y0096302D01*
X0012919Y0094050D02*
X0009917Y0094050D01*
X0009917Y0098554D01*
X0009917Y0078554D02*
X0009917Y0074050D01*
X0041663Y0124738D02*
X0040913Y0125489D01*
X0040913Y0126990D01*
X0041663Y0127741D01*
X0044666Y0127741D01*
X0045417Y0126990D01*
X0045417Y0125489D01*
X0044666Y0124738D01*
X0041663Y0124738D01*
X0040913Y0129342D02*
X0045417Y0129342D01*
X0043915Y0129342D02*
X0040913Y0132345D01*
X0042414Y0133946D02*
X0040913Y0135447D01*
X0045417Y0135447D01*
X0045417Y0133946D02*
X0045417Y0136949D01*
X0045417Y0132345D02*
X0043165Y0130093D01*
X0056419Y0103300D02*
X0072915Y0103300D01*
X0070194Y0097300D02*
X0069139Y0097300D01*
X0067961Y0084554D02*
X0066459Y0084554D01*
X0065709Y0083803D01*
X0067961Y0084554D02*
X0068711Y0083803D01*
X0068711Y0083053D01*
X0065709Y0080050D01*
X0068711Y0080050D01*
X0070313Y0080050D02*
X0070313Y0083053D01*
X0071814Y0084554D01*
X0073315Y0083053D01*
X0073315Y0080050D01*
X0073315Y0082302D02*
X0070313Y0082302D01*
X0064107Y0083053D02*
X0064107Y0083803D01*
X0063357Y0084554D01*
X0061855Y0084554D01*
X0061105Y0083803D01*
X0059503Y0083803D02*
X0059503Y0083053D01*
X0056501Y0080050D01*
X0059503Y0080050D01*
X0061105Y0080050D02*
X0064107Y0083053D01*
X0064107Y0080050D02*
X0061105Y0080050D01*
X0059503Y0083803D02*
X0058753Y0084554D01*
X0057252Y0084554D01*
X0056501Y0083803D01*
X0054900Y0083803D02*
X0054900Y0083053D01*
X0051897Y0080050D01*
X0054900Y0080050D01*
X0054900Y0083803D02*
X0054149Y0084554D01*
X0052648Y0084554D01*
X0051897Y0083803D01*
X0059139Y0097300D02*
X0060194Y0097300D01*
X0071417Y0055449D02*
X0071417Y0052446D01*
X0071417Y0053947D02*
X0066913Y0053947D01*
X0068414Y0052446D01*
X0067663Y0050845D02*
X0066913Y0050094D01*
X0066913Y0048593D01*
X0067663Y0047842D01*
X0068414Y0047842D01*
X0069165Y0048593D01*
X0069165Y0050094D01*
X0069915Y0050845D01*
X0070666Y0050845D01*
X0071417Y0050094D01*
X0071417Y0048593D01*
X0070666Y0047842D01*
X0070666Y0046241D02*
X0066913Y0046241D01*
X0066913Y0043238D02*
X0070666Y0043238D01*
X0071417Y0043989D01*
X0071417Y0045490D01*
X0070666Y0046241D01*
X0072167Y0049343D02*
X0066162Y0049343D01*
X0050289Y0037256D02*
X0050064Y0037363D01*
X0049841Y0037475D01*
X0049621Y0037592D01*
X0049404Y0037714D01*
X0049189Y0037842D01*
X0048978Y0037975D01*
X0048770Y0038112D01*
X0048566Y0038255D01*
X0048364Y0038402D01*
X0048167Y0038554D01*
X0048167Y0055046D01*
X0054167Y0052328D02*
X0054167Y0051272D01*
X0059139Y0056300D02*
X0059369Y0056188D01*
X0059596Y0056071D01*
X0059820Y0055949D01*
X0060041Y0055821D01*
X0060258Y0055687D01*
X0060473Y0055549D01*
X0060684Y0055405D01*
X0060891Y0055256D01*
X0061095Y0055102D01*
X0061295Y0054944D01*
X0061491Y0054780D01*
X0061683Y0054612D01*
X0061871Y0054439D01*
X0062055Y0054261D01*
X0062234Y0054080D01*
X0062409Y0053893D01*
X0062579Y0053703D01*
X0062744Y0053509D01*
X0062905Y0053310D01*
X0063061Y0053108D01*
X0063212Y0052902D01*
X0063358Y0052692D01*
X0063498Y0052479D01*
X0063634Y0052263D01*
X0063764Y0052043D01*
X0063889Y0051820D01*
X0064008Y0051595D01*
X0064122Y0051366D01*
X0064230Y0051135D01*
X0064333Y0050901D01*
X0064430Y0050665D01*
X0064521Y0050426D01*
X0064606Y0050186D01*
X0064686Y0049943D01*
X0064759Y0049698D01*
X0064827Y0049452D01*
X0064888Y0049204D01*
X0064943Y0048955D01*
X0064993Y0048705D01*
X0065036Y0048453D01*
X0065073Y0048200D01*
X0065104Y0047947D01*
X0065129Y0047693D01*
X0065148Y0047438D01*
X0065160Y0047183D01*
X0065166Y0046928D01*
X0065166Y0046672D01*
X0065160Y0046417D01*
X0065148Y0046162D01*
X0065129Y0045907D01*
X0065104Y0045653D01*
X0065073Y0045400D01*
X0065036Y0045147D01*
X0064993Y0044895D01*
X0064943Y0044645D01*
X0064888Y0044396D01*
X0064827Y0044148D01*
X0064759Y0043902D01*
X0064686Y0043657D01*
X0064606Y0043414D01*
X0064521Y0043174D01*
X0064430Y0042935D01*
X0064333Y0042699D01*
X0064230Y0042465D01*
X0064122Y0042234D01*
X0064008Y0042005D01*
X0063889Y0041780D01*
X0063764Y0041557D01*
X0063634Y0041337D01*
X0063498Y0041121D01*
X0063358Y0040908D01*
X0063212Y0040698D01*
X0063061Y0040492D01*
X0062905Y0040290D01*
X0062744Y0040091D01*
X0062579Y0039897D01*
X0062409Y0039707D01*
X0062234Y0039520D01*
X0062055Y0039339D01*
X0061871Y0039161D01*
X0061683Y0038988D01*
X0061491Y0038820D01*
X0061295Y0038656D01*
X0061095Y0038498D01*
X0060891Y0038344D01*
X0060684Y0038195D01*
X0060473Y0038051D01*
X0060258Y0037913D01*
X0060041Y0037779D01*
X0059820Y0037651D01*
X0059596Y0037529D01*
X0059369Y0037412D01*
X0059139Y0037300D01*
X0048167Y0055046D02*
X0048356Y0055192D01*
X0048549Y0055333D01*
X0048744Y0055470D01*
X0048943Y0055603D01*
X0049145Y0055731D01*
X0049350Y0055854D01*
X0049557Y0055973D01*
X0049767Y0056087D01*
X0049980Y0056196D01*
X0050195Y0056300D01*
X0054167Y0042328D02*
X0054167Y0041272D01*
X0051417Y0159840D02*
X0049515Y0159840D01*
X0049515Y0160791D01*
X0049832Y0161108D01*
X0050466Y0161108D01*
X0050783Y0160791D01*
X0050783Y0159840D01*
X0050783Y0160474D02*
X0051417Y0161108D01*
X0051100Y0162050D02*
X0051417Y0162367D01*
X0051417Y0163001D01*
X0051100Y0163318D01*
X0050783Y0163318D01*
X0050466Y0163001D01*
X0050466Y0162684D01*
X0050466Y0163001D02*
X0050149Y0163318D01*
X0049832Y0163318D01*
X0049515Y0163001D01*
X0049515Y0162367D01*
X0049832Y0162050D01*
X0031417Y0162050D02*
X0030149Y0163318D01*
X0029832Y0163318D01*
X0029515Y0163001D01*
X0029515Y0162367D01*
X0029832Y0162050D01*
X0029832Y0161108D02*
X0030466Y0161108D01*
X0030783Y0160791D01*
X0030783Y0159840D01*
X0031417Y0159840D02*
X0029515Y0159840D01*
X0029515Y0160791D01*
X0029832Y0161108D01*
X0030783Y0160474D02*
X0031417Y0161108D01*
X0031417Y0162050D02*
X0031417Y0163318D01*
X0042707Y0293050D02*
X0043658Y0293050D01*
X0043975Y0293367D01*
X0043975Y0293684D01*
X0043658Y0294001D01*
X0042707Y0294001D01*
X0043658Y0294001D02*
X0043975Y0294318D01*
X0043975Y0294635D01*
X0043658Y0294952D01*
X0042707Y0294952D01*
X0042707Y0293050D01*
X0044917Y0293050D02*
X0046184Y0293050D01*
X0045551Y0293050D02*
X0045551Y0294952D01*
X0044917Y0294318D01*
D13*
X0062167Y0064800D02*
X0094667Y0064800D01*
X0094667Y0028800D01*
X0062167Y0028800D01*
X0062167Y0064800D01*
D14*
X0085511Y0057806D02*
X0091817Y0057806D01*
X0091817Y0055704D02*
X0091817Y0059908D01*
X0087613Y0055704D02*
X0085511Y0057806D01*
X0086562Y0053463D02*
X0085511Y0052412D01*
X0085511Y0050310D01*
X0086562Y0049259D01*
X0086562Y0047017D02*
X0085511Y0047017D01*
X0085511Y0042813D01*
X0086562Y0040572D02*
X0085511Y0039521D01*
X0085511Y0037419D01*
X0086562Y0036368D01*
X0087613Y0036368D01*
X0088664Y0037419D01*
X0088664Y0039521D01*
X0089715Y0040572D01*
X0090766Y0040572D01*
X0091817Y0039521D01*
X0091817Y0037419D01*
X0090766Y0036368D01*
X0089715Y0036368D01*
X0088664Y0037419D01*
X0088664Y0039521D02*
X0087613Y0040572D01*
X0086562Y0040572D01*
X0090766Y0042813D02*
X0086562Y0047017D01*
X0091817Y0049259D02*
X0087613Y0053463D01*
X0086562Y0053463D01*
X0090766Y0042813D02*
X0091817Y0042813D01*
X0091817Y0049259D02*
X0091817Y0053463D01*
X0090766Y0034126D02*
X0091817Y0033075D01*
X0091817Y0029922D01*
X0085511Y0029922D01*
X0085511Y0033075D01*
X0086562Y0034126D01*
X0087613Y0034126D01*
X0088664Y0033075D01*
X0088664Y0029922D01*
X0088664Y0033075D02*
X0089715Y0034126D01*
X0090766Y0034126D01*
X0091817Y0027681D02*
X0091817Y0023477D01*
X0085511Y0023477D01*
X0086562Y0021235D02*
X0085511Y0020184D01*
X0085511Y0017031D01*
X0091817Y0017031D01*
X0089715Y0017031D02*
X0089715Y0020184D01*
X0088664Y0021235D01*
X0086562Y0021235D01*
X0089715Y0019133D02*
X0091817Y0021235D01*
X0091817Y0014836D02*
X0091817Y0012734D01*
X0091817Y0013785D02*
X0085511Y0013785D01*
X0085511Y0012734D02*
X0085511Y0014836D01*
D15*
X0047417Y0036800D03*
X0047417Y0046800D03*
X0047417Y0056800D03*
D16*
X0054167Y0056800D03*
X0054167Y0046800D03*
X0054167Y0036800D03*
D17*
X0056227Y0103419D02*
X0056581Y0103141D01*
X0056580Y0103141D02*
X0056435Y0102952D01*
X0056294Y0102758D01*
X0056158Y0102562D01*
X0056026Y0102363D01*
X0055899Y0102160D01*
X0055777Y0101955D01*
X0055659Y0101747D01*
X0055546Y0101536D01*
X0055439Y0101322D01*
X0055336Y0101106D01*
X0054927Y0101294D01*
X0055034Y0101520D01*
X0055147Y0101743D01*
X0055264Y0101963D01*
X0055387Y0102180D01*
X0055515Y0102395D01*
X0055648Y0102606D01*
X0055785Y0102815D01*
X0055928Y0103020D01*
X0056075Y0103222D01*
X0056227Y0103420D01*
X0056264Y0103391D01*
X0056113Y0103193D01*
X0055966Y0102993D01*
X0055824Y0102788D01*
X0055687Y0102581D01*
X0055555Y0102370D01*
X0055428Y0102157D01*
X0055306Y0101940D01*
X0055188Y0101721D01*
X0055076Y0101499D01*
X0054970Y0101274D01*
X0055012Y0101255D01*
X0055119Y0101478D01*
X0055230Y0101699D01*
X0055347Y0101918D01*
X0055469Y0102133D01*
X0055595Y0102346D01*
X0055727Y0102555D01*
X0055863Y0102762D01*
X0056004Y0102965D01*
X0056150Y0103165D01*
X0056301Y0103362D01*
X0056338Y0103333D01*
X0056188Y0103137D01*
X0056043Y0102938D01*
X0055902Y0102736D01*
X0055766Y0102530D01*
X0055635Y0102321D01*
X0055509Y0102110D01*
X0055388Y0101895D01*
X0055272Y0101678D01*
X0055161Y0101458D01*
X0055055Y0101235D01*
X0055098Y0101216D01*
X0055203Y0101437D01*
X0055314Y0101656D01*
X0055429Y0101872D01*
X0055550Y0102086D01*
X0055675Y0102297D01*
X0055806Y0102505D01*
X0055941Y0102709D01*
X0056081Y0102911D01*
X0056225Y0103109D01*
X0056375Y0103304D01*
X0056411Y0103274D01*
X0056263Y0103081D01*
X0056119Y0102883D01*
X0055980Y0102683D01*
X0055845Y0102479D01*
X0055715Y0102272D01*
X0055591Y0102063D01*
X0055471Y0101850D01*
X0055355Y0101635D01*
X0055245Y0101417D01*
X0055141Y0101196D01*
X0055183Y0101176D01*
X0055288Y0101396D01*
X0055397Y0101613D01*
X0055512Y0101827D01*
X0055631Y0102039D01*
X0055756Y0102248D01*
X0055885Y0102454D01*
X0056019Y0102656D01*
X0056157Y0102856D01*
X0056301Y0103052D01*
X0056448Y0103245D01*
X0056485Y0103216D01*
X0056338Y0103024D01*
X0056196Y0102829D01*
X0056058Y0102630D01*
X0055924Y0102428D01*
X0055796Y0102223D01*
X0055672Y0102015D01*
X0055553Y0101805D01*
X0055439Y0101591D01*
X0055330Y0101375D01*
X0055226Y0101157D01*
X0055269Y0101137D01*
X0055372Y0101355D01*
X0055481Y0101570D01*
X0055594Y0101782D01*
X0055713Y0101992D01*
X0055836Y0102199D01*
X0055964Y0102403D01*
X0056096Y0102604D01*
X0056234Y0102801D01*
X0056376Y0102996D01*
X0056522Y0103187D01*
X0056559Y0103158D01*
X0056413Y0102968D01*
X0056272Y0102774D01*
X0056135Y0102577D01*
X0056003Y0102377D01*
X0055876Y0102174D01*
X0055753Y0101968D01*
X0055635Y0101760D01*
X0055522Y0101548D01*
X0055414Y0101334D01*
X0055311Y0101118D01*
X0054975Y0092210D02*
X0055382Y0092402D01*
X0055381Y0092401D02*
X0055492Y0092175D01*
X0055608Y0091951D01*
X0055730Y0091730D01*
X0055857Y0091513D01*
X0055989Y0091298D01*
X0056127Y0091087D01*
X0056269Y0090879D01*
X0056417Y0090675D01*
X0056570Y0090474D01*
X0056727Y0090278D01*
X0056890Y0090085D01*
X0057057Y0089896D01*
X0057228Y0089712D01*
X0057405Y0089531D01*
X0057585Y0089355D01*
X0057770Y0089184D01*
X0057959Y0089017D01*
X0058152Y0088855D01*
X0058348Y0088697D01*
X0058549Y0088545D01*
X0058753Y0088397D01*
X0058961Y0088255D01*
X0059173Y0088117D01*
X0059387Y0087985D01*
X0059605Y0087858D01*
X0059826Y0087737D01*
X0060050Y0087621D01*
X0060276Y0087510D01*
X0060505Y0087406D01*
X0060737Y0087306D01*
X0060971Y0087213D01*
X0061207Y0087125D01*
X0061446Y0087043D01*
X0061686Y0086967D01*
X0061928Y0086897D01*
X0062172Y0086833D01*
X0062417Y0086774D01*
X0062664Y0086722D01*
X0062911Y0086676D01*
X0063160Y0086636D01*
X0063410Y0086602D01*
X0063660Y0086574D01*
X0063912Y0086553D01*
X0064163Y0086537D01*
X0064415Y0086528D01*
X0064667Y0086525D01*
X0064919Y0086528D01*
X0065171Y0086537D01*
X0065422Y0086553D01*
X0065674Y0086574D01*
X0065924Y0086602D01*
X0066174Y0086636D01*
X0066423Y0086676D01*
X0066670Y0086722D01*
X0066917Y0086774D01*
X0067162Y0086833D01*
X0067406Y0086897D01*
X0067648Y0086967D01*
X0067888Y0087043D01*
X0068127Y0087125D01*
X0068363Y0087213D01*
X0068597Y0087306D01*
X0068829Y0087406D01*
X0069058Y0087510D01*
X0069284Y0087621D01*
X0069508Y0087737D01*
X0069729Y0087858D01*
X0069947Y0087985D01*
X0070161Y0088117D01*
X0070373Y0088255D01*
X0070581Y0088397D01*
X0070785Y0088545D01*
X0070986Y0088697D01*
X0071182Y0088855D01*
X0071375Y0089017D01*
X0071564Y0089184D01*
X0071749Y0089355D01*
X0071929Y0089531D01*
X0072106Y0089712D01*
X0072277Y0089896D01*
X0072444Y0090085D01*
X0072607Y0090278D01*
X0072764Y0090474D01*
X0072917Y0090675D01*
X0073065Y0090879D01*
X0073207Y0091087D01*
X0073345Y0091298D01*
X0073477Y0091513D01*
X0073604Y0091730D01*
X0073726Y0091951D01*
X0073842Y0092175D01*
X0073953Y0092401D01*
X0074359Y0092210D01*
X0074360Y0092210D01*
X0074244Y0091973D01*
X0074123Y0091740D01*
X0073996Y0091509D01*
X0073864Y0091282D01*
X0073725Y0091058D01*
X0073582Y0090838D01*
X0073433Y0090621D01*
X0073279Y0090407D01*
X0073119Y0090198D01*
X0072955Y0089993D01*
X0072785Y0089792D01*
X0072611Y0089595D01*
X0072432Y0089402D01*
X0072248Y0089214D01*
X0072060Y0089030D01*
X0071867Y0088851D01*
X0071670Y0088677D01*
X0071468Y0088507D01*
X0071263Y0088343D01*
X0071053Y0088184D01*
X0070840Y0088030D01*
X0070623Y0087881D01*
X0070403Y0087737D01*
X0070178Y0087600D01*
X0069951Y0087467D01*
X0069721Y0087340D01*
X0069487Y0087219D01*
X0069251Y0087104D01*
X0069011Y0086994D01*
X0068770Y0086891D01*
X0068525Y0086793D01*
X0068279Y0086701D01*
X0068030Y0086616D01*
X0067779Y0086536D01*
X0067526Y0086463D01*
X0067272Y0086396D01*
X0067016Y0086335D01*
X0066758Y0086281D01*
X0066500Y0086233D01*
X0066240Y0086191D01*
X0065979Y0086156D01*
X0065718Y0086127D01*
X0065456Y0086104D01*
X0065193Y0086088D01*
X0064930Y0086078D01*
X0064667Y0086075D01*
X0064404Y0086078D01*
X0064141Y0086088D01*
X0063878Y0086104D01*
X0063616Y0086127D01*
X0063355Y0086156D01*
X0063094Y0086191D01*
X0062834Y0086233D01*
X0062576Y0086281D01*
X0062318Y0086335D01*
X0062062Y0086396D01*
X0061808Y0086463D01*
X0061555Y0086536D01*
X0061304Y0086616D01*
X0061055Y0086701D01*
X0060809Y0086793D01*
X0060564Y0086891D01*
X0060323Y0086994D01*
X0060083Y0087104D01*
X0059847Y0087219D01*
X0059613Y0087340D01*
X0059383Y0087467D01*
X0059156Y0087600D01*
X0058931Y0087737D01*
X0058711Y0087881D01*
X0058494Y0088030D01*
X0058281Y0088184D01*
X0058071Y0088343D01*
X0057866Y0088507D01*
X0057664Y0088677D01*
X0057467Y0088851D01*
X0057274Y0089030D01*
X0057086Y0089214D01*
X0056902Y0089402D01*
X0056723Y0089595D01*
X0056549Y0089792D01*
X0056379Y0089993D01*
X0056215Y0090198D01*
X0056055Y0090407D01*
X0055901Y0090621D01*
X0055752Y0090838D01*
X0055609Y0091058D01*
X0055470Y0091282D01*
X0055338Y0091509D01*
X0055211Y0091740D01*
X0055090Y0091973D01*
X0054974Y0092210D01*
X0055017Y0092230D01*
X0055132Y0091994D01*
X0055252Y0091762D01*
X0055379Y0091532D01*
X0055511Y0091306D01*
X0055648Y0091083D01*
X0055791Y0090864D01*
X0055940Y0090648D01*
X0056093Y0090435D01*
X0056252Y0090227D01*
X0056416Y0090023D01*
X0056584Y0089822D01*
X0056758Y0089626D01*
X0056936Y0089434D01*
X0057119Y0089247D01*
X0057307Y0089064D01*
X0057499Y0088886D01*
X0057695Y0088712D01*
X0057896Y0088544D01*
X0058100Y0088380D01*
X0058309Y0088221D01*
X0058521Y0088068D01*
X0058737Y0087920D01*
X0058957Y0087777D01*
X0059180Y0087640D01*
X0059406Y0087508D01*
X0059636Y0087382D01*
X0059868Y0087261D01*
X0060104Y0087146D01*
X0060342Y0087037D01*
X0060583Y0086934D01*
X0060826Y0086837D01*
X0061071Y0086746D01*
X0061319Y0086660D01*
X0061569Y0086581D01*
X0061820Y0086508D01*
X0062074Y0086442D01*
X0062329Y0086381D01*
X0062585Y0086327D01*
X0062842Y0086279D01*
X0063101Y0086237D01*
X0063361Y0086202D01*
X0063621Y0086173D01*
X0063882Y0086151D01*
X0064143Y0086135D01*
X0064405Y0086125D01*
X0064667Y0086122D01*
X0064929Y0086125D01*
X0065191Y0086135D01*
X0065452Y0086151D01*
X0065713Y0086173D01*
X0065973Y0086202D01*
X0066233Y0086237D01*
X0066492Y0086279D01*
X0066749Y0086327D01*
X0067005Y0086381D01*
X0067260Y0086442D01*
X0067514Y0086508D01*
X0067765Y0086581D01*
X0068015Y0086660D01*
X0068263Y0086746D01*
X0068508Y0086837D01*
X0068751Y0086934D01*
X0068992Y0087037D01*
X0069230Y0087146D01*
X0069466Y0087261D01*
X0069698Y0087382D01*
X0069928Y0087508D01*
X0070154Y0087640D01*
X0070377Y0087777D01*
X0070597Y0087920D01*
X0070813Y0088068D01*
X0071025Y0088221D01*
X0071234Y0088380D01*
X0071438Y0088544D01*
X0071639Y0088712D01*
X0071835Y0088886D01*
X0072027Y0089064D01*
X0072215Y0089247D01*
X0072398Y0089434D01*
X0072576Y0089626D01*
X0072750Y0089822D01*
X0072918Y0090023D01*
X0073082Y0090227D01*
X0073241Y0090435D01*
X0073394Y0090648D01*
X0073543Y0090864D01*
X0073686Y0091083D01*
X0073823Y0091306D01*
X0073955Y0091532D01*
X0074082Y0091762D01*
X0074202Y0091994D01*
X0074317Y0092230D01*
X0074275Y0092250D01*
X0074160Y0092015D01*
X0074040Y0091784D01*
X0073914Y0091555D01*
X0073783Y0091330D01*
X0073646Y0091108D01*
X0073504Y0090890D01*
X0073356Y0090675D01*
X0073203Y0090463D01*
X0073045Y0090256D01*
X0072882Y0090052D01*
X0072714Y0089853D01*
X0072541Y0089658D01*
X0072364Y0089467D01*
X0072181Y0089280D01*
X0071995Y0089098D01*
X0071804Y0088920D01*
X0071608Y0088748D01*
X0071409Y0088580D01*
X0071205Y0088417D01*
X0070997Y0088259D01*
X0070786Y0088106D01*
X0070571Y0087959D01*
X0070352Y0087817D01*
X0070130Y0087680D01*
X0069905Y0087549D01*
X0069676Y0087423D01*
X0069445Y0087303D01*
X0069210Y0087189D01*
X0068973Y0087080D01*
X0068733Y0086977D01*
X0068491Y0086881D01*
X0068247Y0086790D01*
X0068000Y0086705D01*
X0067752Y0086626D01*
X0067501Y0086554D01*
X0067249Y0086487D01*
X0066995Y0086427D01*
X0066740Y0086373D01*
X0066484Y0086325D01*
X0066226Y0086284D01*
X0065968Y0086249D01*
X0065709Y0086220D01*
X0065449Y0086198D01*
X0065188Y0086182D01*
X0064928Y0086172D01*
X0064667Y0086169D01*
X0064406Y0086172D01*
X0064146Y0086182D01*
X0063885Y0086198D01*
X0063625Y0086220D01*
X0063366Y0086249D01*
X0063108Y0086284D01*
X0062850Y0086325D01*
X0062594Y0086373D01*
X0062339Y0086427D01*
X0062085Y0086487D01*
X0061833Y0086554D01*
X0061582Y0086626D01*
X0061334Y0086705D01*
X0061087Y0086790D01*
X0060843Y0086881D01*
X0060601Y0086977D01*
X0060361Y0087080D01*
X0060124Y0087189D01*
X0059889Y0087303D01*
X0059658Y0087423D01*
X0059429Y0087549D01*
X0059204Y0087680D01*
X0058982Y0087817D01*
X0058763Y0087959D01*
X0058548Y0088106D01*
X0058337Y0088259D01*
X0058129Y0088417D01*
X0057925Y0088580D01*
X0057726Y0088748D01*
X0057530Y0088920D01*
X0057339Y0089098D01*
X0057153Y0089280D01*
X0056970Y0089467D01*
X0056793Y0089658D01*
X0056620Y0089853D01*
X0056452Y0090052D01*
X0056289Y0090256D01*
X0056131Y0090463D01*
X0055978Y0090675D01*
X0055830Y0090890D01*
X0055688Y0091108D01*
X0055551Y0091330D01*
X0055420Y0091555D01*
X0055294Y0091784D01*
X0055174Y0092015D01*
X0055059Y0092250D01*
X0055102Y0092270D01*
X0055216Y0092036D01*
X0055335Y0091806D01*
X0055461Y0091578D01*
X0055592Y0091354D01*
X0055728Y0091133D01*
X0055870Y0090916D01*
X0056016Y0090702D01*
X0056169Y0090491D01*
X0056326Y0090285D01*
X0056488Y0090082D01*
X0056656Y0089884D01*
X0056828Y0089689D01*
X0057004Y0089499D01*
X0057186Y0089313D01*
X0057372Y0089132D01*
X0057562Y0088955D01*
X0057757Y0088783D01*
X0057955Y0088616D01*
X0058158Y0088454D01*
X0058365Y0088297D01*
X0058575Y0088145D01*
X0058789Y0087998D01*
X0059007Y0087857D01*
X0059228Y0087720D01*
X0059452Y0087590D01*
X0059680Y0087465D01*
X0059910Y0087345D01*
X0060144Y0087231D01*
X0060380Y0087123D01*
X0060619Y0087021D01*
X0060860Y0086925D01*
X0061103Y0086834D01*
X0061349Y0086750D01*
X0061596Y0086671D01*
X0061845Y0086599D01*
X0062097Y0086533D01*
X0062349Y0086473D01*
X0062603Y0086419D01*
X0062858Y0086372D01*
X0063115Y0086330D01*
X0063372Y0086296D01*
X0063630Y0086267D01*
X0063889Y0086245D01*
X0064148Y0086229D01*
X0064407Y0086219D01*
X0064667Y0086216D01*
X0064927Y0086219D01*
X0065186Y0086229D01*
X0065445Y0086245D01*
X0065704Y0086267D01*
X0065962Y0086296D01*
X0066219Y0086330D01*
X0066476Y0086372D01*
X0066731Y0086419D01*
X0066985Y0086473D01*
X0067237Y0086533D01*
X0067489Y0086599D01*
X0067738Y0086671D01*
X0067985Y0086750D01*
X0068231Y0086834D01*
X0068474Y0086925D01*
X0068715Y0087021D01*
X0068954Y0087123D01*
X0069190Y0087231D01*
X0069424Y0087345D01*
X0069654Y0087465D01*
X0069882Y0087590D01*
X0070106Y0087720D01*
X0070327Y0087857D01*
X0070545Y0087998D01*
X0070759Y0088145D01*
X0070969Y0088297D01*
X0071176Y0088454D01*
X0071379Y0088616D01*
X0071577Y0088783D01*
X0071772Y0088955D01*
X0071962Y0089132D01*
X0072148Y0089313D01*
X0072330Y0089499D01*
X0072506Y0089689D01*
X0072678Y0089884D01*
X0072846Y0090082D01*
X0073008Y0090285D01*
X0073165Y0090491D01*
X0073318Y0090702D01*
X0073464Y0090916D01*
X0073606Y0091133D01*
X0073742Y0091354D01*
X0073873Y0091578D01*
X0073999Y0091806D01*
X0074118Y0092036D01*
X0074232Y0092270D01*
X0074190Y0092290D01*
X0074076Y0092057D01*
X0073957Y0091828D01*
X0073832Y0091602D01*
X0073702Y0091378D01*
X0073566Y0091158D01*
X0073425Y0090942D01*
X0073279Y0090729D01*
X0073128Y0090519D01*
X0072971Y0090314D01*
X0072809Y0090112D01*
X0072643Y0089914D01*
X0072472Y0089721D01*
X0072296Y0089531D01*
X0072115Y0089346D01*
X0071930Y0089166D01*
X0071740Y0088990D01*
X0071547Y0088819D01*
X0071349Y0088653D01*
X0071147Y0088491D01*
X0070941Y0088335D01*
X0070732Y0088183D01*
X0070519Y0088037D01*
X0070302Y0087896D01*
X0070082Y0087761D01*
X0069858Y0087631D01*
X0069632Y0087506D01*
X0069402Y0087387D01*
X0069170Y0087274D01*
X0068935Y0087166D01*
X0068697Y0087064D01*
X0068457Y0086968D01*
X0068215Y0086878D01*
X0067971Y0086794D01*
X0067724Y0086716D01*
X0067476Y0086644D01*
X0067226Y0086578D01*
X0066975Y0086519D01*
X0066722Y0086465D01*
X0066468Y0086418D01*
X0066212Y0086377D01*
X0065956Y0086342D01*
X0065699Y0086314D01*
X0065442Y0086292D01*
X0065184Y0086276D01*
X0064925Y0086266D01*
X0064667Y0086263D01*
X0064409Y0086266D01*
X0064150Y0086276D01*
X0063892Y0086292D01*
X0063635Y0086314D01*
X0063378Y0086342D01*
X0063122Y0086377D01*
X0062866Y0086418D01*
X0062612Y0086465D01*
X0062359Y0086519D01*
X0062108Y0086578D01*
X0061858Y0086644D01*
X0061610Y0086716D01*
X0061363Y0086794D01*
X0061119Y0086878D01*
X0060877Y0086968D01*
X0060637Y0087064D01*
X0060399Y0087166D01*
X0060164Y0087274D01*
X0059932Y0087387D01*
X0059702Y0087506D01*
X0059476Y0087631D01*
X0059252Y0087761D01*
X0059032Y0087896D01*
X0058815Y0088037D01*
X0058602Y0088183D01*
X0058393Y0088335D01*
X0058187Y0088491D01*
X0057985Y0088653D01*
X0057787Y0088819D01*
X0057594Y0088990D01*
X0057404Y0089166D01*
X0057219Y0089346D01*
X0057038Y0089531D01*
X0056862Y0089721D01*
X0056691Y0089914D01*
X0056525Y0090112D01*
X0056363Y0090314D01*
X0056206Y0090519D01*
X0056055Y0090729D01*
X0055909Y0090942D01*
X0055768Y0091158D01*
X0055632Y0091378D01*
X0055502Y0091602D01*
X0055377Y0091828D01*
X0055258Y0092057D01*
X0055144Y0092290D01*
X0055187Y0092310D01*
X0055300Y0092078D01*
X0055418Y0091850D01*
X0055543Y0091625D01*
X0055672Y0091402D01*
X0055807Y0091183D01*
X0055948Y0090968D01*
X0056093Y0090756D01*
X0056244Y0090547D01*
X0056400Y0090342D01*
X0056561Y0090142D01*
X0056727Y0089945D01*
X0056897Y0089752D01*
X0057073Y0089564D01*
X0057252Y0089380D01*
X0057437Y0089200D01*
X0057625Y0089025D01*
X0057818Y0088854D01*
X0058015Y0088689D01*
X0058216Y0088528D01*
X0058421Y0088372D01*
X0058629Y0088222D01*
X0058842Y0088076D01*
X0059057Y0087936D01*
X0059276Y0087801D01*
X0059499Y0087671D01*
X0059724Y0087547D01*
X0059953Y0087429D01*
X0060184Y0087316D01*
X0060418Y0087209D01*
X0060655Y0087108D01*
X0060894Y0087012D01*
X0061135Y0086923D01*
X0061378Y0086839D01*
X0061623Y0086761D01*
X0061871Y0086690D01*
X0062119Y0086624D01*
X0062370Y0086565D01*
X0062622Y0086511D01*
X0062874Y0086464D01*
X0063129Y0086423D01*
X0063384Y0086389D01*
X0063639Y0086360D01*
X0063896Y0086338D01*
X0064153Y0086323D01*
X0064410Y0086313D01*
X0064667Y0086310D01*
X0064924Y0086313D01*
X0065181Y0086323D01*
X0065438Y0086338D01*
X0065695Y0086360D01*
X0065950Y0086389D01*
X0066205Y0086423D01*
X0066460Y0086464D01*
X0066712Y0086511D01*
X0066964Y0086565D01*
X0067215Y0086624D01*
X0067463Y0086690D01*
X0067711Y0086761D01*
X0067956Y0086839D01*
X0068199Y0086923D01*
X0068440Y0087012D01*
X0068679Y0087108D01*
X0068916Y0087209D01*
X0069150Y0087316D01*
X0069381Y0087429D01*
X0069610Y0087547D01*
X0069835Y0087671D01*
X0070058Y0087801D01*
X0070277Y0087936D01*
X0070492Y0088076D01*
X0070705Y0088222D01*
X0070913Y0088372D01*
X0071118Y0088528D01*
X0071319Y0088689D01*
X0071516Y0088854D01*
X0071709Y0089025D01*
X0071897Y0089200D01*
X0072082Y0089380D01*
X0072261Y0089564D01*
X0072437Y0089752D01*
X0072607Y0089945D01*
X0072773Y0090142D01*
X0072934Y0090342D01*
X0073090Y0090547D01*
X0073241Y0090756D01*
X0073386Y0090968D01*
X0073527Y0091183D01*
X0073662Y0091402D01*
X0073791Y0091625D01*
X0073916Y0091850D01*
X0074034Y0092078D01*
X0074147Y0092310D01*
X0074105Y0092330D01*
X0073992Y0092099D01*
X0073874Y0091872D01*
X0073751Y0091648D01*
X0073621Y0091427D01*
X0073487Y0091208D01*
X0073347Y0090994D01*
X0073202Y0090783D01*
X0073052Y0090575D01*
X0072897Y0090371D01*
X0072737Y0090171D01*
X0072572Y0089975D01*
X0072402Y0089784D01*
X0072227Y0089596D01*
X0072048Y0089413D01*
X0071865Y0089234D01*
X0071677Y0089060D01*
X0071485Y0088890D01*
X0071289Y0088725D01*
X0071089Y0088565D01*
X0070885Y0088410D01*
X0070677Y0088260D01*
X0070466Y0088115D01*
X0070251Y0087976D01*
X0070033Y0087841D01*
X0069812Y0087712D01*
X0069587Y0087589D01*
X0069360Y0087471D01*
X0069130Y0087359D01*
X0068897Y0087252D01*
X0068661Y0087151D01*
X0068424Y0087056D01*
X0068183Y0086967D01*
X0067941Y0086884D01*
X0067697Y0086806D01*
X0067451Y0086735D01*
X0067203Y0086670D01*
X0066954Y0086610D01*
X0066703Y0086557D01*
X0066451Y0086511D01*
X0066199Y0086470D01*
X0065945Y0086435D01*
X0065690Y0086407D01*
X0065435Y0086385D01*
X0065179Y0086370D01*
X0064923Y0086360D01*
X0064667Y0086357D01*
X0064411Y0086360D01*
X0064155Y0086370D01*
X0063899Y0086385D01*
X0063644Y0086407D01*
X0063389Y0086435D01*
X0063135Y0086470D01*
X0062883Y0086511D01*
X0062631Y0086557D01*
X0062380Y0086610D01*
X0062131Y0086670D01*
X0061883Y0086735D01*
X0061637Y0086806D01*
X0061393Y0086884D01*
X0061151Y0086967D01*
X0060910Y0087056D01*
X0060673Y0087151D01*
X0060437Y0087252D01*
X0060204Y0087359D01*
X0059974Y0087471D01*
X0059747Y0087589D01*
X0059522Y0087712D01*
X0059301Y0087841D01*
X0059083Y0087976D01*
X0058868Y0088115D01*
X0058657Y0088260D01*
X0058449Y0088410D01*
X0058245Y0088565D01*
X0058045Y0088725D01*
X0057849Y0088890D01*
X0057657Y0089060D01*
X0057469Y0089234D01*
X0057286Y0089413D01*
X0057107Y0089596D01*
X0056932Y0089784D01*
X0056762Y0089975D01*
X0056597Y0090171D01*
X0056437Y0090371D01*
X0056282Y0090575D01*
X0056132Y0090783D01*
X0055987Y0090994D01*
X0055847Y0091208D01*
X0055713Y0091427D01*
X0055583Y0091648D01*
X0055460Y0091872D01*
X0055342Y0092099D01*
X0055229Y0092330D01*
X0055272Y0092350D01*
X0055384Y0092121D01*
X0055501Y0091894D01*
X0055624Y0091671D01*
X0055753Y0091451D01*
X0055887Y0091234D01*
X0056026Y0091020D01*
X0056170Y0090810D01*
X0056320Y0090603D01*
X0056474Y0090400D01*
X0056634Y0090201D01*
X0056798Y0090006D01*
X0056967Y0089815D01*
X0057141Y0089628D01*
X0057319Y0089446D01*
X0057502Y0089268D01*
X0057688Y0089094D01*
X0057880Y0088926D01*
X0058075Y0088761D01*
X0058274Y0088602D01*
X0058477Y0088448D01*
X0058684Y0088298D01*
X0058894Y0088154D01*
X0059108Y0088015D01*
X0059325Y0087882D01*
X0059545Y0087753D01*
X0059769Y0087630D01*
X0059995Y0087513D01*
X0060224Y0087401D01*
X0060456Y0087295D01*
X0060691Y0087195D01*
X0060927Y0087100D01*
X0061166Y0087011D01*
X0061408Y0086928D01*
X0061651Y0086851D01*
X0061896Y0086780D01*
X0062142Y0086715D01*
X0062390Y0086656D01*
X0062640Y0086604D01*
X0062891Y0086557D01*
X0063142Y0086516D01*
X0063395Y0086482D01*
X0063649Y0086454D01*
X0063903Y0086432D01*
X0064157Y0086417D01*
X0064412Y0086407D01*
X0064667Y0086404D01*
X0064922Y0086407D01*
X0065177Y0086417D01*
X0065431Y0086432D01*
X0065685Y0086454D01*
X0065939Y0086482D01*
X0066192Y0086516D01*
X0066443Y0086557D01*
X0066694Y0086604D01*
X0066944Y0086656D01*
X0067192Y0086715D01*
X0067438Y0086780D01*
X0067683Y0086851D01*
X0067926Y0086928D01*
X0068168Y0087011D01*
X0068407Y0087100D01*
X0068643Y0087195D01*
X0068878Y0087295D01*
X0069110Y0087401D01*
X0069339Y0087513D01*
X0069565Y0087630D01*
X0069789Y0087753D01*
X0070009Y0087882D01*
X0070226Y0088015D01*
X0070440Y0088154D01*
X0070650Y0088298D01*
X0070857Y0088448D01*
X0071060Y0088602D01*
X0071259Y0088761D01*
X0071454Y0088926D01*
X0071646Y0089094D01*
X0071832Y0089268D01*
X0072015Y0089446D01*
X0072193Y0089628D01*
X0072367Y0089815D01*
X0072536Y0090006D01*
X0072700Y0090201D01*
X0072860Y0090400D01*
X0073014Y0090603D01*
X0073164Y0090810D01*
X0073308Y0091020D01*
X0073447Y0091234D01*
X0073581Y0091451D01*
X0073710Y0091671D01*
X0073833Y0091894D01*
X0073950Y0092121D01*
X0074062Y0092350D01*
X0074020Y0092370D01*
X0073908Y0092142D01*
X0073791Y0091916D01*
X0073669Y0091694D01*
X0073541Y0091475D01*
X0073407Y0091259D01*
X0073269Y0091046D01*
X0073125Y0090837D01*
X0072976Y0090631D01*
X0072823Y0090429D01*
X0072664Y0090231D01*
X0072500Y0090037D01*
X0072332Y0089847D01*
X0072159Y0089661D01*
X0071982Y0089479D01*
X0071800Y0089302D01*
X0071614Y0089129D01*
X0071424Y0088961D01*
X0071229Y0088798D01*
X0071031Y0088639D01*
X0070829Y0088486D01*
X0070623Y0088337D01*
X0070414Y0088193D01*
X0070201Y0088055D01*
X0069985Y0087922D01*
X0069766Y0087794D01*
X0069543Y0087672D01*
X0069318Y0087555D01*
X0069090Y0087444D01*
X0068859Y0087338D01*
X0068625Y0087238D01*
X0068390Y0087144D01*
X0068152Y0087055D01*
X0067912Y0086973D01*
X0067670Y0086896D01*
X0067426Y0086825D01*
X0067180Y0086761D01*
X0066933Y0086702D01*
X0066685Y0086650D01*
X0066435Y0086603D01*
X0066185Y0086563D01*
X0065933Y0086529D01*
X0065681Y0086501D01*
X0065428Y0086479D01*
X0065175Y0086463D01*
X0064921Y0086454D01*
X0064667Y0086451D01*
X0064413Y0086454D01*
X0064159Y0086463D01*
X0063906Y0086479D01*
X0063653Y0086501D01*
X0063401Y0086529D01*
X0063149Y0086563D01*
X0062899Y0086603D01*
X0062649Y0086650D01*
X0062401Y0086702D01*
X0062154Y0086761D01*
X0061908Y0086825D01*
X0061664Y0086896D01*
X0061422Y0086973D01*
X0061182Y0087055D01*
X0060944Y0087144D01*
X0060709Y0087238D01*
X0060475Y0087338D01*
X0060244Y0087444D01*
X0060016Y0087555D01*
X0059791Y0087672D01*
X0059568Y0087794D01*
X0059349Y0087922D01*
X0059133Y0088055D01*
X0058920Y0088193D01*
X0058711Y0088337D01*
X0058505Y0088486D01*
X0058303Y0088639D01*
X0058105Y0088798D01*
X0057910Y0088961D01*
X0057720Y0089129D01*
X0057534Y0089302D01*
X0057352Y0089479D01*
X0057175Y0089661D01*
X0057002Y0089847D01*
X0056834Y0090037D01*
X0056670Y0090231D01*
X0056511Y0090429D01*
X0056358Y0090631D01*
X0056209Y0090837D01*
X0056065Y0091046D01*
X0055927Y0091259D01*
X0055793Y0091475D01*
X0055665Y0091694D01*
X0055543Y0091916D01*
X0055426Y0092142D01*
X0055314Y0092370D01*
X0055357Y0092390D01*
X0055468Y0092163D01*
X0055584Y0091938D01*
X0055706Y0091717D01*
X0055834Y0091499D01*
X0055966Y0091284D01*
X0056104Y0091072D01*
X0056247Y0090864D01*
X0056395Y0090659D01*
X0056549Y0090458D01*
X0056707Y0090261D01*
X0056869Y0090067D01*
X0057037Y0089878D01*
X0057209Y0089693D01*
X0057385Y0089512D01*
X0057566Y0089336D01*
X0057752Y0089164D01*
X0057941Y0088997D01*
X0058134Y0088834D01*
X0058332Y0088676D01*
X0058533Y0088523D01*
X0058738Y0088375D01*
X0058946Y0088232D01*
X0059158Y0088095D01*
X0059373Y0087962D01*
X0059592Y0087835D01*
X0059813Y0087713D01*
X0060037Y0087597D01*
X0060265Y0087486D01*
X0060494Y0087381D01*
X0060727Y0087281D01*
X0060961Y0087188D01*
X0061198Y0087100D01*
X0061437Y0087017D01*
X0061678Y0086941D01*
X0061921Y0086871D01*
X0062165Y0086806D01*
X0062411Y0086748D01*
X0062658Y0086696D01*
X0062907Y0086650D01*
X0063156Y0086609D01*
X0063407Y0086575D01*
X0063658Y0086548D01*
X0063910Y0086526D01*
X0064162Y0086510D01*
X0064414Y0086501D01*
X0064667Y0086498D01*
X0064920Y0086501D01*
X0065172Y0086510D01*
X0065424Y0086526D01*
X0065676Y0086548D01*
X0065927Y0086575D01*
X0066178Y0086609D01*
X0066427Y0086650D01*
X0066676Y0086696D01*
X0066923Y0086748D01*
X0067169Y0086806D01*
X0067413Y0086871D01*
X0067656Y0086941D01*
X0067897Y0087017D01*
X0068136Y0087100D01*
X0068373Y0087188D01*
X0068607Y0087281D01*
X0068840Y0087381D01*
X0069069Y0087486D01*
X0069297Y0087597D01*
X0069521Y0087713D01*
X0069742Y0087835D01*
X0069961Y0087962D01*
X0070176Y0088095D01*
X0070388Y0088232D01*
X0070596Y0088375D01*
X0070801Y0088523D01*
X0071002Y0088676D01*
X0071200Y0088834D01*
X0071393Y0088997D01*
X0071582Y0089164D01*
X0071768Y0089336D01*
X0071949Y0089512D01*
X0072125Y0089693D01*
X0072297Y0089878D01*
X0072465Y0090067D01*
X0072627Y0090261D01*
X0072785Y0090458D01*
X0072939Y0090659D01*
X0073087Y0090864D01*
X0073230Y0091072D01*
X0073368Y0091284D01*
X0073500Y0091499D01*
X0073628Y0091717D01*
X0073750Y0091938D01*
X0073866Y0092163D01*
X0073977Y0092390D01*
X0074361Y0101390D02*
X0073954Y0101199D01*
X0073955Y0101199D02*
X0073854Y0101405D01*
X0073750Y0101608D01*
X0073640Y0101809D01*
X0073526Y0102008D01*
X0073408Y0102204D01*
X0073286Y0102397D01*
X0073159Y0102587D01*
X0073028Y0102775D01*
X0072893Y0102960D01*
X0072754Y0103141D01*
X0073107Y0103419D01*
X0073107Y0103420D01*
X0073253Y0103230D01*
X0073394Y0103037D01*
X0073531Y0102841D01*
X0073663Y0102642D01*
X0073791Y0102440D01*
X0073914Y0102236D01*
X0074033Y0102028D01*
X0074148Y0101818D01*
X0074257Y0101606D01*
X0074362Y0101391D01*
X0074319Y0101371D01*
X0074215Y0101585D01*
X0074106Y0101796D01*
X0073992Y0102005D01*
X0073874Y0102212D01*
X0073751Y0102416D01*
X0073624Y0102617D01*
X0073492Y0102815D01*
X0073356Y0103010D01*
X0073215Y0103202D01*
X0073070Y0103391D01*
X0073033Y0103362D01*
X0073177Y0103174D01*
X0073317Y0102983D01*
X0073453Y0102788D01*
X0073584Y0102591D01*
X0073711Y0102391D01*
X0073833Y0102188D01*
X0073951Y0101983D01*
X0074064Y0101774D01*
X0074173Y0101564D01*
X0074277Y0101351D01*
X0074234Y0101331D01*
X0074131Y0101543D01*
X0074023Y0101752D01*
X0073910Y0101960D01*
X0073793Y0102164D01*
X0073671Y0102366D01*
X0073545Y0102565D01*
X0073414Y0102762D01*
X0073279Y0102955D01*
X0073140Y0103145D01*
X0072996Y0103333D01*
X0072959Y0103304D01*
X0073102Y0103117D01*
X0073241Y0102928D01*
X0073375Y0102735D01*
X0073505Y0102540D01*
X0073631Y0102342D01*
X0073752Y0102140D01*
X0073869Y0101937D01*
X0073981Y0101731D01*
X0074089Y0101522D01*
X0074192Y0101311D01*
X0074149Y0101291D01*
X0074047Y0101501D01*
X0073940Y0101709D01*
X0073828Y0101914D01*
X0073712Y0102117D01*
X0073591Y0102317D01*
X0073466Y0102514D01*
X0073337Y0102709D01*
X0073203Y0102900D01*
X0073065Y0103089D01*
X0072923Y0103274D01*
X0072886Y0103245D01*
X0073027Y0103061D01*
X0073165Y0102873D01*
X0073298Y0102682D01*
X0073427Y0102489D01*
X0073551Y0102292D01*
X0073671Y0102093D01*
X0073787Y0101891D01*
X0073898Y0101687D01*
X0074005Y0101480D01*
X0074107Y0101271D01*
X0074064Y0101251D01*
X0073963Y0101459D01*
X0073857Y0101665D01*
X0073746Y0101868D01*
X0073631Y0102069D01*
X0073511Y0102267D01*
X0073387Y0102463D01*
X0073259Y0102656D01*
X0073126Y0102846D01*
X0072990Y0103033D01*
X0072849Y0103216D01*
X0072812Y0103187D01*
X0072952Y0103004D01*
X0073088Y0102818D01*
X0073220Y0102629D01*
X0073348Y0102437D01*
X0073471Y0102243D01*
X0073590Y0102045D01*
X0073705Y0101845D01*
X0073815Y0101643D01*
X0073921Y0101438D01*
X0074022Y0101231D01*
X0073979Y0101211D01*
X0073879Y0101417D01*
X0073773Y0101621D01*
X0073664Y0101822D01*
X0073550Y0102021D01*
X0073431Y0102218D01*
X0073308Y0102412D01*
X0073181Y0102603D01*
X0073050Y0102791D01*
X0072914Y0102976D01*
X0072775Y0103158D01*
D18*
X0074801Y0136514D02*
X0077937Y0139650D01*
X0077937Y0138082D02*
X0074801Y0138082D01*
X0074801Y0139650D02*
X0077937Y0136514D01*
X0076369Y0136514D02*
X0076369Y0139650D01*
D19*
X0082567Y0138766D02*
X0082567Y0136297D01*
X0083801Y0135062D01*
X0089973Y0135062D01*
X0087504Y0132450D02*
X0089973Y0129981D01*
X0082567Y0129981D01*
X0082567Y0132450D02*
X0082567Y0127512D01*
X0082567Y0138766D02*
X0083801Y0140000D01*
X0089973Y0140000D01*
M02*
