G75*
%MOIN*%
%OFA0B0*%
%FSLAX25Y25*%
%IPPOS*%
%LPD*%
%AMOC8*
5,1,8,0,0,1.08239X$1,22.5*
%
%ADD10C,0.08200*%
%ADD11C,0.07400*%
%ADD12C,0.13800*%
%ADD13C,0.06000*%
D10*
X0014667Y0161800D03*
X0014667Y0171800D03*
X0014667Y0181800D03*
X0014667Y0191800D03*
X0014667Y0201800D03*
X0014667Y0211800D03*
X0014667Y0221800D03*
X0014667Y0231800D03*
X0014667Y0241800D03*
X0014667Y0251800D03*
X0014667Y0261800D03*
X0014667Y0271800D03*
X0074667Y0271800D03*
X0074667Y0261800D03*
X0074667Y0251800D03*
X0074667Y0241800D03*
X0074667Y0231800D03*
X0074667Y0221800D03*
X0074667Y0211800D03*
X0074667Y0201800D03*
X0074667Y0191800D03*
X0074667Y0181800D03*
X0074667Y0171800D03*
X0074667Y0161800D03*
D11*
X0042967Y0036800D02*
X0036367Y0036800D01*
X0036367Y0046800D02*
X0042967Y0046800D01*
X0042967Y0056800D02*
X0036367Y0056800D01*
D12*
X0108667Y0046800D03*
D13*
X0074667Y0094200D02*
X0074667Y0099400D01*
X0064667Y0099400D02*
X0064667Y0094200D01*
X0054667Y0094200D02*
X0054667Y0099400D01*
X0052067Y0056800D02*
X0057267Y0056800D01*
X0057267Y0046800D02*
X0052067Y0046800D01*
X0052067Y0036800D02*
X0057267Y0036800D01*
X0034667Y0106600D02*
X0034667Y0111800D01*
X0024667Y0111800D02*
X0024667Y0106600D01*
X0014667Y0106600D02*
X0014667Y0111800D01*
X0014667Y0141800D02*
X0014667Y0147000D01*
X0024667Y0147000D02*
X0024667Y0141800D01*
X0034667Y0141800D02*
X0034667Y0147000D01*
M02*
