%
M48
M72
T01C0.0236
T02C0.0240
T03C0.0320
T04C0.0400
T05C0.0440
T06C0.1300
%
T01
X1967Y9680
X5967Y14680
X7467Y8180
T02
X7037Y14870
X6137Y15770
T03
X3467Y14180
X2467Y14180
X1467Y14180
X1467Y11180
X2467Y11180
X3467Y11180
X5467Y9680
X6467Y9680
X7467Y9680
X5467Y5680
X5467Y4680
X5467Y3680
T04
X7467Y16180
X7467Y17180
X7467Y18180
X7467Y19180
X7467Y20180
X7467Y21180
X7467Y22180
X7467Y23180
X7467Y24180
X7467Y25180
X7467Y26180
X7467Y27180
X1467Y27180
X1467Y26180
X1467Y25180
X1467Y24180
X1467Y23180
X1467Y22180
X1467Y21180
X1467Y20180
X1467Y19180
X1467Y18180
X1467Y17180
X1467Y16180
T05
X3967Y3680
X3967Y4680
X3967Y5680
T06
X10867Y4680
M30
