G75*
%MOIN*%
%OFA0B0*%
%FSLAX25Y25*%
%IPPOS*%
%LPD*%
%AMOC8*
5,1,8,0,0,1.08239X$1,22.5*
%
%ADD10C,0.00600*%
%ADD11C,0.07400*%
%ADD12C,0.06600*%
%ADD13C,0.05200*%
%ADD14R,0.04331X0.03937*%
%ADD15R,0.03937X0.04331*%
%ADD16R,0.02200X0.07800*%
%ADD17R,0.10000X0.20000*%
%ADD18R,0.20000X0.10000*%
%ADD19C,0.01600*%
%ADD20R,0.04362X0.04362*%
%ADD21C,0.05000*%
%ADD22C,0.01000*%
%ADD23C,0.04400*%
%ADD24C,0.01200*%
D10*
X0030096Y0187100D02*
X0030096Y0190303D01*
X0031164Y0191370D01*
X0033299Y0191370D01*
X0034367Y0190303D01*
X0034367Y0187100D01*
X0036502Y0187100D02*
X0030096Y0187100D01*
X0033299Y0193545D02*
X0032232Y0194613D01*
X0032232Y0197816D01*
X0031164Y0197816D02*
X0034367Y0197816D01*
X0034367Y0194613D01*
X0033299Y0193545D01*
X0030096Y0196748D02*
X0031164Y0197816D01*
X0030096Y0196748D02*
X0030096Y0194613D01*
X0030096Y0199991D02*
X0033299Y0199991D01*
X0034367Y0201059D01*
X0034367Y0204261D01*
X0030096Y0204261D01*
X0027961Y0206436D02*
X0027961Y0207504D01*
X0034367Y0207504D01*
X0034367Y0206436D02*
X0034367Y0208572D01*
X0034367Y0210733D02*
X0034367Y0211801D01*
X0033299Y0211801D01*
X0033299Y0210733D01*
X0034367Y0210733D01*
X0034367Y0213956D02*
X0030096Y0213956D01*
X0030096Y0215024D01*
X0031164Y0216091D01*
X0030096Y0217159D01*
X0031164Y0218227D01*
X0034367Y0218227D01*
X0034367Y0216091D02*
X0031164Y0216091D01*
X0033299Y0220402D02*
X0032232Y0221469D01*
X0032232Y0224672D01*
X0031164Y0224672D02*
X0034367Y0224672D01*
X0034367Y0221469D01*
X0033299Y0220402D01*
X0030096Y0223604D02*
X0031164Y0224672D01*
X0030096Y0223604D02*
X0030096Y0221469D01*
X0030096Y0226847D02*
X0030096Y0230050D01*
X0031164Y0231118D01*
X0034367Y0231118D01*
X0033299Y0233293D02*
X0031164Y0233293D01*
X0030096Y0234360D01*
X0030096Y0237563D01*
X0027961Y0237563D02*
X0034367Y0237563D01*
X0034367Y0234360D01*
X0033299Y0233293D01*
X0033299Y0239738D02*
X0032232Y0240806D01*
X0032232Y0244009D01*
X0031164Y0244009D02*
X0034367Y0244009D01*
X0034367Y0240806D01*
X0033299Y0239738D01*
X0030096Y0242941D02*
X0031164Y0244009D01*
X0030096Y0242941D02*
X0030096Y0240806D01*
X0027961Y0246184D02*
X0027961Y0247251D01*
X0034367Y0247251D01*
X0034367Y0246184D02*
X0034367Y0248319D01*
X0033299Y0250481D02*
X0029029Y0250481D01*
X0027961Y0251548D01*
X0027961Y0253683D01*
X0029029Y0254751D01*
X0031164Y0254751D01*
X0032232Y0253683D01*
X0030096Y0253683D01*
X0030096Y0251548D01*
X0032232Y0251548D01*
X0032232Y0253683D01*
X0033299Y0254751D02*
X0034367Y0253683D01*
X0034367Y0251548D01*
X0033299Y0250481D01*
X0033299Y0256926D02*
X0031164Y0256926D01*
X0030096Y0257994D01*
X0030096Y0261197D01*
X0035434Y0261197D01*
X0036502Y0260129D01*
X0036502Y0259061D01*
X0034367Y0257994D02*
X0034367Y0261197D01*
X0034367Y0263372D02*
X0030096Y0263372D01*
X0030096Y0264439D01*
X0031164Y0265507D01*
X0030096Y0266574D01*
X0031164Y0267642D01*
X0034367Y0267642D01*
X0034367Y0265507D02*
X0031164Y0265507D01*
X0033299Y0269817D02*
X0032232Y0270885D01*
X0032232Y0274088D01*
X0031164Y0274088D02*
X0034367Y0274088D01*
X0034367Y0270885D01*
X0033299Y0269817D01*
X0030096Y0273020D02*
X0031164Y0274088D01*
X0030096Y0273020D02*
X0030096Y0270885D01*
X0030096Y0276263D02*
X0030096Y0277330D01*
X0034367Y0277330D01*
X0034367Y0276263D02*
X0034367Y0278398D01*
X0034367Y0280560D02*
X0034367Y0282695D01*
X0034367Y0281627D02*
X0027961Y0281627D01*
X0027961Y0280560D01*
X0027961Y0277330D02*
X0026894Y0277330D01*
X0034367Y0257994D02*
X0033299Y0256926D01*
X0034367Y0226847D02*
X0030096Y0226847D01*
D11*
X0014667Y0231800D03*
X0014667Y0221800D03*
X0014667Y0211800D03*
X0014667Y0201800D03*
X0014667Y0191800D03*
X0014667Y0181800D03*
X0014667Y0171800D03*
X0014667Y0161800D03*
X0014667Y0241800D03*
X0014667Y0251800D03*
X0014667Y0261800D03*
X0014667Y0271800D03*
X0074667Y0271800D03*
X0074667Y0261800D03*
X0074667Y0251800D03*
X0074667Y0241800D03*
X0074667Y0231800D03*
X0074667Y0221800D03*
X0074667Y0211800D03*
X0074667Y0201800D03*
X0074667Y0191800D03*
X0074667Y0181800D03*
X0074667Y0171800D03*
X0074667Y0161800D03*
D12*
X0042967Y0056800D02*
X0036367Y0056800D01*
X0036367Y0046800D02*
X0042967Y0046800D01*
X0042967Y0036800D02*
X0036367Y0036800D01*
D13*
X0052067Y0036800D02*
X0057267Y0036800D01*
X0057267Y0046800D02*
X0052067Y0046800D01*
X0052067Y0056800D02*
X0057267Y0056800D01*
X0054667Y0094200D02*
X0054667Y0099400D01*
X0064667Y0099400D02*
X0064667Y0094200D01*
X0074667Y0094200D02*
X0074667Y0099400D01*
X0034667Y0106600D02*
X0034667Y0111800D01*
X0024667Y0111800D02*
X0024667Y0106600D01*
X0014667Y0106600D02*
X0014667Y0111800D01*
X0014667Y0141800D02*
X0014667Y0147000D01*
X0024667Y0147000D02*
X0024667Y0141800D01*
X0034667Y0141800D02*
X0034667Y0147000D01*
D14*
X0041320Y0071800D03*
X0048013Y0071800D03*
D15*
X0054667Y0158454D03*
X0054667Y0165146D03*
X0034667Y0165146D03*
X0034667Y0158454D03*
D16*
X0057167Y0136500D03*
X0062167Y0136500D03*
X0067167Y0136500D03*
X0072167Y0136500D03*
X0072167Y0117100D03*
X0067167Y0117100D03*
X0062167Y0117100D03*
X0057167Y0117100D03*
D17*
X0034667Y0016800D03*
X0014667Y0016800D03*
D18*
X0019667Y0046800D03*
X0019667Y0066800D03*
X0019667Y0086800D03*
D19*
X0006667Y0121800D02*
X0006667Y0003800D01*
X0082667Y0003800D01*
X0082667Y0121800D01*
X0077367Y0121800D01*
X0077367Y0112203D01*
X0076986Y0111284D01*
X0076283Y0110581D01*
X0076283Y0110581D01*
X0072867Y0107164D01*
X0072867Y0103421D01*
X0072978Y0103478D01*
X0073636Y0103692D01*
X0074320Y0103800D01*
X0074667Y0103800D01*
X0074667Y0096800D01*
X0079067Y0096800D01*
X0079067Y0099746D01*
X0078958Y0100430D01*
X0078744Y0101089D01*
X0078430Y0101706D01*
X0078023Y0102266D01*
X0077533Y0102756D01*
X0076973Y0103163D01*
X0076356Y0103478D01*
X0075697Y0103692D01*
X0075013Y0103800D01*
X0074667Y0103800D01*
X0074667Y0096800D01*
X0074667Y0096800D01*
X0079067Y0096800D01*
X0079067Y0093854D01*
X0078958Y0093170D01*
X0078744Y0092511D01*
X0078430Y0091894D01*
X0078023Y0091334D01*
X0077533Y0090844D01*
X0076973Y0090437D01*
X0076356Y0090122D01*
X0075697Y0089908D01*
X0075013Y0089800D01*
X0074667Y0089800D01*
X0074667Y0096800D01*
X0074667Y0096800D01*
X0074667Y0096800D01*
X0074667Y0089800D01*
X0074320Y0089800D01*
X0073636Y0089908D01*
X0072978Y0090122D01*
X0072867Y0090179D01*
X0072867Y0063603D01*
X0072486Y0062684D01*
X0071783Y0061981D01*
X0060187Y0050385D01*
X0061166Y0049406D01*
X0061867Y0047715D01*
X0061867Y0045885D01*
X0061166Y0044194D01*
X0059872Y0042900D01*
X0058182Y0042200D01*
X0051152Y0042200D01*
X0049844Y0042742D01*
X0049283Y0042181D01*
X0047012Y0039909D01*
X0047329Y0039473D01*
X0047693Y0038758D01*
X0047783Y0038480D01*
X0048167Y0039406D01*
X0049461Y0040700D01*
X0051152Y0041400D01*
X0058182Y0041400D01*
X0059872Y0040700D01*
X0061166Y0039406D01*
X0061867Y0037715D01*
X0061867Y0035885D01*
X0061166Y0034194D01*
X0059872Y0032900D01*
X0058182Y0032200D01*
X0051152Y0032200D01*
X0049461Y0032900D01*
X0048167Y0034194D01*
X0047783Y0035120D01*
X0047693Y0034842D01*
X0047329Y0034127D01*
X0046857Y0033478D01*
X0046289Y0032910D01*
X0045640Y0032438D01*
X0044924Y0032074D01*
X0044161Y0031826D01*
X0043368Y0031700D01*
X0039967Y0031700D01*
X0039967Y0036500D01*
X0039367Y0036500D01*
X0039367Y0031700D01*
X0035965Y0031700D01*
X0035172Y0031826D01*
X0034409Y0032074D01*
X0033694Y0032438D01*
X0033044Y0032910D01*
X0032477Y0033478D01*
X0032005Y0034127D01*
X0031640Y0034842D01*
X0031519Y0035217D01*
X0021667Y0025364D01*
X0021667Y0005972D01*
X0020495Y0004800D01*
X0008838Y0004800D01*
X0007667Y0005972D01*
X0007667Y0027628D01*
X0008838Y0028800D01*
X0018031Y0028800D01*
X0029031Y0039800D01*
X0008838Y0039800D01*
X0007667Y0040972D01*
X0007667Y0052628D01*
X0008838Y0053800D01*
X0029167Y0053800D01*
X0029167Y0059800D01*
X0008838Y0059800D01*
X0007667Y0060972D01*
X0007667Y0072628D01*
X0008838Y0073800D01*
X0023431Y0073800D01*
X0027551Y0077919D01*
X0028469Y0078300D01*
X0041431Y0078300D01*
X0053030Y0089899D01*
X0052061Y0090300D01*
X0050767Y0091594D01*
X0050067Y0093285D01*
X0050067Y0100315D01*
X0050767Y0102006D01*
X0052061Y0103300D01*
X0053752Y0104000D01*
X0054367Y0104000D01*
X0054367Y0112072D01*
X0054067Y0112372D01*
X0054067Y0114343D01*
X0053251Y0114681D01*
X0052547Y0115384D01*
X0052207Y0116205D01*
X0041367Y0105364D01*
X0041367Y0104103D01*
X0040986Y0103184D01*
X0031049Y0093246D01*
X0031667Y0092628D01*
X0031667Y0080972D01*
X0030495Y0079800D01*
X0008838Y0079800D01*
X0007667Y0080972D01*
X0007667Y0092628D01*
X0008838Y0093800D01*
X0024531Y0093800D01*
X0033030Y0102299D01*
X0032061Y0102700D01*
X0030767Y0103994D01*
X0030067Y0105685D01*
X0030067Y0112715D01*
X0030767Y0114406D01*
X0032061Y0115700D01*
X0033752Y0116400D01*
X0035582Y0116400D01*
X0037272Y0115700D01*
X0038566Y0114406D01*
X0039267Y0112715D01*
X0039267Y0110336D01*
X0050731Y0121800D01*
X0006667Y0121800D01*
X0006667Y0120666D02*
X0049597Y0120666D01*
X0047999Y0119068D02*
X0006667Y0119068D01*
X0006667Y0117469D02*
X0046400Y0117469D01*
X0044802Y0115870D02*
X0036860Y0115870D01*
X0038622Y0114272D02*
X0043203Y0114272D01*
X0041605Y0112673D02*
X0039267Y0112673D01*
X0039267Y0111075D02*
X0040006Y0111075D01*
X0042282Y0106279D02*
X0054367Y0106279D01*
X0054367Y0104681D02*
X0041367Y0104681D01*
X0040885Y0103082D02*
X0051844Y0103082D01*
X0050551Y0101484D02*
X0039286Y0101484D01*
X0037688Y0099885D02*
X0050067Y0099885D01*
X0050067Y0098287D02*
X0036089Y0098287D01*
X0034491Y0096688D02*
X0050067Y0096688D01*
X0050067Y0095090D02*
X0032892Y0095090D01*
X0031667Y0091893D02*
X0050643Y0091893D01*
X0050067Y0093491D02*
X0031294Y0093491D01*
X0031667Y0090294D02*
X0052075Y0090294D01*
X0051827Y0088696D02*
X0031667Y0088696D01*
X0031667Y0087097D02*
X0050228Y0087097D01*
X0048630Y0085499D02*
X0031667Y0085499D01*
X0031667Y0083900D02*
X0047031Y0083900D01*
X0045433Y0082302D02*
X0031667Y0082302D01*
X0031398Y0080703D02*
X0043834Y0080703D01*
X0042236Y0079105D02*
X0006667Y0079105D01*
X0006667Y0080703D02*
X0007935Y0080703D01*
X0007667Y0082302D02*
X0006667Y0082302D01*
X0006667Y0083900D02*
X0007667Y0083900D01*
X0007667Y0085499D02*
X0006667Y0085499D01*
X0006667Y0087097D02*
X0007667Y0087097D01*
X0007667Y0088696D02*
X0006667Y0088696D01*
X0006667Y0090294D02*
X0007667Y0090294D01*
X0007667Y0091893D02*
X0006667Y0091893D01*
X0006667Y0093491D02*
X0008530Y0093491D01*
X0006667Y0095090D02*
X0025821Y0095090D01*
X0027419Y0096688D02*
X0006667Y0096688D01*
X0006667Y0098287D02*
X0029018Y0098287D01*
X0027272Y0102700D02*
X0028566Y0103994D01*
X0029267Y0105685D01*
X0029267Y0112715D01*
X0028566Y0114406D01*
X0027272Y0115700D01*
X0025582Y0116400D01*
X0023752Y0116400D01*
X0022061Y0115700D01*
X0020767Y0114406D01*
X0020067Y0112715D01*
X0020067Y0105685D01*
X0020767Y0103994D01*
X0022061Y0102700D01*
X0023752Y0102000D01*
X0025582Y0102000D01*
X0027272Y0102700D01*
X0027654Y0103082D02*
X0031679Y0103082D01*
X0032215Y0101484D02*
X0006667Y0101484D01*
X0006667Y0103082D02*
X0012022Y0103082D01*
X0011800Y0103244D02*
X0012361Y0102837D01*
X0012978Y0102522D01*
X0013636Y0102308D01*
X0014320Y0102200D01*
X0014667Y0102200D01*
X0015013Y0102200D01*
X0015697Y0102308D01*
X0016356Y0102522D01*
X0016973Y0102837D01*
X0017533Y0103244D01*
X0018023Y0103734D01*
X0018430Y0104294D01*
X0018744Y0104911D01*
X0018958Y0105570D01*
X0019067Y0106254D01*
X0019067Y0111800D01*
X0019067Y0112146D01*
X0018958Y0112830D01*
X0018744Y0113489D01*
X0018430Y0114106D01*
X0018023Y0114666D01*
X0017533Y0115156D01*
X0016973Y0115563D01*
X0016356Y0115878D01*
X0015697Y0116092D01*
X0015013Y0116200D01*
X0014667Y0116200D01*
X0014667Y0111800D01*
X0019067Y0111800D01*
X0014667Y0111800D01*
X0014667Y0111800D01*
X0014667Y0111800D01*
X0014667Y0102200D01*
X0014667Y0111800D01*
X0014667Y0111800D01*
X0014667Y0116200D01*
X0014320Y0116200D01*
X0013636Y0116092D01*
X0012978Y0115878D01*
X0012361Y0115563D01*
X0011800Y0115156D01*
X0011311Y0114666D01*
X0010903Y0114106D01*
X0010589Y0113489D01*
X0010375Y0112830D01*
X0010267Y0112146D01*
X0010267Y0111800D01*
X0010267Y0106254D01*
X0010375Y0105570D01*
X0010589Y0104911D01*
X0010903Y0104294D01*
X0011311Y0103734D01*
X0011800Y0103244D01*
X0010706Y0104681D02*
X0006667Y0104681D01*
X0006667Y0106279D02*
X0010267Y0106279D01*
X0010267Y0107878D02*
X0006667Y0107878D01*
X0006667Y0109476D02*
X0010267Y0109476D01*
X0010267Y0111075D02*
X0006667Y0111075D01*
X0006667Y0112673D02*
X0010350Y0112673D01*
X0010267Y0111800D02*
X0014667Y0111800D01*
X0010267Y0111800D01*
X0011024Y0114272D02*
X0006667Y0114272D01*
X0006667Y0115870D02*
X0012964Y0115870D01*
X0014667Y0115870D02*
X0014667Y0115870D01*
X0014667Y0114272D02*
X0014667Y0114272D01*
X0014667Y0112673D02*
X0014667Y0112673D01*
X0014667Y0111800D02*
X0014667Y0111800D01*
X0014667Y0111075D02*
X0014667Y0111075D01*
X0014667Y0109476D02*
X0014667Y0109476D01*
X0014667Y0107878D02*
X0014667Y0107878D01*
X0014667Y0106279D02*
X0014667Y0106279D01*
X0014667Y0104681D02*
X0014667Y0104681D01*
X0014667Y0103082D02*
X0014667Y0103082D01*
X0017311Y0103082D02*
X0021679Y0103082D01*
X0020483Y0104681D02*
X0018627Y0104681D01*
X0019067Y0106279D02*
X0020067Y0106279D01*
X0020067Y0107878D02*
X0019067Y0107878D01*
X0019067Y0109476D02*
X0020067Y0109476D01*
X0020067Y0111075D02*
X0019067Y0111075D01*
X0018983Y0112673D02*
X0020067Y0112673D01*
X0020712Y0114272D02*
X0018309Y0114272D01*
X0016370Y0115870D02*
X0022473Y0115870D01*
X0026860Y0115870D02*
X0032473Y0115870D01*
X0030712Y0114272D02*
X0028622Y0114272D01*
X0029267Y0112673D02*
X0030067Y0112673D01*
X0030067Y0111075D02*
X0029267Y0111075D01*
X0029267Y0109476D02*
X0030067Y0109476D01*
X0030067Y0107878D02*
X0029267Y0107878D01*
X0029267Y0106279D02*
X0030067Y0106279D01*
X0030483Y0104681D02*
X0028851Y0104681D01*
X0030617Y0099885D02*
X0006667Y0099885D01*
X0006667Y0077506D02*
X0027137Y0077506D01*
X0025539Y0075908D02*
X0006667Y0075908D01*
X0006667Y0074309D02*
X0023940Y0074309D01*
X0029167Y0058324D02*
X0006667Y0058324D01*
X0006667Y0056726D02*
X0029167Y0056726D01*
X0029167Y0055127D02*
X0006667Y0055127D01*
X0006667Y0053529D02*
X0008567Y0053529D01*
X0007667Y0051930D02*
X0006667Y0051930D01*
X0006667Y0050332D02*
X0007667Y0050332D01*
X0007667Y0048733D02*
X0006667Y0048733D01*
X0006667Y0047134D02*
X0007667Y0047134D01*
X0007667Y0045536D02*
X0006667Y0045536D01*
X0006667Y0043937D02*
X0007667Y0043937D01*
X0007667Y0042339D02*
X0006667Y0042339D01*
X0006667Y0040740D02*
X0007898Y0040740D01*
X0006667Y0039142D02*
X0028373Y0039142D01*
X0026775Y0037543D02*
X0006667Y0037543D01*
X0006667Y0035945D02*
X0025176Y0035945D01*
X0023578Y0034346D02*
X0006667Y0034346D01*
X0006667Y0032748D02*
X0021979Y0032748D01*
X0020381Y0031149D02*
X0006667Y0031149D01*
X0006667Y0029551D02*
X0018782Y0029551D01*
X0022656Y0026354D02*
X0027867Y0026354D01*
X0027867Y0027037D02*
X0027867Y0017600D01*
X0033867Y0017600D01*
X0033867Y0028600D01*
X0029430Y0028600D01*
X0028972Y0028477D01*
X0028561Y0028240D01*
X0028226Y0027905D01*
X0027989Y0027495D01*
X0027867Y0027037D01*
X0028273Y0027952D02*
X0024255Y0027952D01*
X0025853Y0029551D02*
X0082667Y0029551D01*
X0082667Y0031149D02*
X0027452Y0031149D01*
X0029050Y0032748D02*
X0033267Y0032748D01*
X0031893Y0034346D02*
X0030649Y0034346D01*
X0033867Y0027952D02*
X0035467Y0027952D01*
X0035467Y0028600D02*
X0039904Y0028600D01*
X0040361Y0028477D01*
X0040772Y0028240D01*
X0041107Y0027905D01*
X0041344Y0027495D01*
X0041467Y0027037D01*
X0041467Y0017600D01*
X0035467Y0017600D01*
X0035467Y0016000D01*
X0041467Y0016000D01*
X0041467Y0006563D01*
X0041344Y0006105D01*
X0041107Y0005695D01*
X0040772Y0005360D01*
X0040361Y0005123D01*
X0039904Y0005000D01*
X0035467Y0005000D01*
X0035467Y0016000D01*
X0033867Y0016000D01*
X0033867Y0005000D01*
X0029430Y0005000D01*
X0028972Y0005123D01*
X0028561Y0005360D01*
X0028226Y0005695D01*
X0027989Y0006105D01*
X0027867Y0006563D01*
X0027867Y0016000D01*
X0033867Y0016000D01*
X0033867Y0017600D01*
X0035467Y0017600D01*
X0035467Y0028600D01*
X0035467Y0026354D02*
X0033867Y0026354D01*
X0033867Y0024755D02*
X0035467Y0024755D01*
X0035467Y0023157D02*
X0033867Y0023157D01*
X0033867Y0021558D02*
X0035467Y0021558D01*
X0035467Y0019960D02*
X0033867Y0019960D01*
X0033867Y0018361D02*
X0035467Y0018361D01*
X0035467Y0016763D02*
X0082667Y0016763D01*
X0082667Y0018361D02*
X0041467Y0018361D01*
X0041467Y0019960D02*
X0082667Y0019960D01*
X0082667Y0021558D02*
X0041467Y0021558D01*
X0041467Y0023157D02*
X0082667Y0023157D01*
X0082667Y0024755D02*
X0041467Y0024755D01*
X0041467Y0026354D02*
X0082667Y0026354D01*
X0082667Y0027952D02*
X0041060Y0027952D01*
X0039967Y0032748D02*
X0039367Y0032748D01*
X0039367Y0034346D02*
X0039967Y0034346D01*
X0039967Y0035945D02*
X0039367Y0035945D01*
X0046066Y0032748D02*
X0049829Y0032748D01*
X0048104Y0034346D02*
X0047440Y0034346D01*
X0047497Y0039142D02*
X0048058Y0039142D01*
X0047843Y0040740D02*
X0049559Y0040740D01*
X0049441Y0042339D02*
X0050816Y0042339D01*
X0058517Y0042339D02*
X0082667Y0042339D01*
X0082667Y0043937D02*
X0060910Y0043937D01*
X0061722Y0045536D02*
X0082667Y0045536D01*
X0082667Y0047134D02*
X0061867Y0047134D01*
X0061445Y0048733D02*
X0082667Y0048733D01*
X0082667Y0050332D02*
X0060241Y0050332D01*
X0061732Y0051930D02*
X0082667Y0051930D01*
X0082667Y0053529D02*
X0063331Y0053529D01*
X0064929Y0055127D02*
X0082667Y0055127D01*
X0082667Y0056726D02*
X0066528Y0056726D01*
X0068126Y0058324D02*
X0082667Y0058324D01*
X0082667Y0059923D02*
X0069725Y0059923D01*
X0071323Y0061521D02*
X0082667Y0061521D01*
X0082667Y0063120D02*
X0072667Y0063120D01*
X0072867Y0064718D02*
X0082667Y0064718D01*
X0082667Y0066317D02*
X0072867Y0066317D01*
X0072867Y0067915D02*
X0082667Y0067915D01*
X0082667Y0069514D02*
X0072867Y0069514D01*
X0072867Y0071112D02*
X0082667Y0071112D01*
X0082667Y0072711D02*
X0072867Y0072711D01*
X0072867Y0074309D02*
X0082667Y0074309D01*
X0082667Y0075908D02*
X0072867Y0075908D01*
X0072867Y0077506D02*
X0082667Y0077506D01*
X0082667Y0079105D02*
X0072867Y0079105D01*
X0072867Y0080703D02*
X0082667Y0080703D01*
X0082667Y0082302D02*
X0072867Y0082302D01*
X0072867Y0083900D02*
X0082667Y0083900D01*
X0082667Y0085499D02*
X0072867Y0085499D01*
X0072867Y0087097D02*
X0082667Y0087097D01*
X0082667Y0088696D02*
X0072867Y0088696D01*
X0074667Y0090294D02*
X0074667Y0090294D01*
X0074667Y0091893D02*
X0074667Y0091893D01*
X0074667Y0093491D02*
X0074667Y0093491D01*
X0074667Y0095090D02*
X0074667Y0095090D01*
X0074667Y0096688D02*
X0074667Y0096688D01*
X0074667Y0098287D02*
X0074667Y0098287D01*
X0074667Y0099885D02*
X0074667Y0099885D01*
X0074667Y0101484D02*
X0074667Y0101484D01*
X0074667Y0103082D02*
X0074667Y0103082D01*
X0072867Y0104681D02*
X0082667Y0104681D01*
X0082667Y0106279D02*
X0072867Y0106279D01*
X0073580Y0107878D02*
X0082667Y0107878D01*
X0082667Y0109476D02*
X0075179Y0109476D01*
X0076777Y0111075D02*
X0082667Y0111075D01*
X0082667Y0112673D02*
X0077367Y0112673D01*
X0077367Y0114272D02*
X0082667Y0114272D01*
X0082667Y0115870D02*
X0077367Y0115870D01*
X0077367Y0117469D02*
X0082667Y0117469D01*
X0082667Y0119068D02*
X0077367Y0119068D01*
X0077367Y0120666D02*
X0082667Y0120666D01*
X0082667Y0131800D02*
X0077367Y0131800D01*
X0077367Y0154597D01*
X0076986Y0155516D01*
X0076226Y0156276D01*
X0077895Y0156968D01*
X0079499Y0158571D01*
X0080367Y0160666D01*
X0080367Y0162934D01*
X0079499Y0165029D01*
X0077895Y0166632D01*
X0077490Y0166800D01*
X0077895Y0166968D01*
X0079499Y0168571D01*
X0080367Y0170666D01*
X0080367Y0172934D01*
X0079499Y0175029D01*
X0077895Y0176632D01*
X0077490Y0176800D01*
X0077895Y0176968D01*
X0079499Y0178571D01*
X0080367Y0180666D01*
X0080367Y0182934D01*
X0079499Y0185029D01*
X0077895Y0186632D01*
X0077490Y0186800D01*
X0077895Y0186968D01*
X0079499Y0188571D01*
X0080367Y0190666D01*
X0080367Y0192934D01*
X0079499Y0195029D01*
X0077895Y0196632D01*
X0077490Y0196800D01*
X0077895Y0196968D01*
X0079499Y0198571D01*
X0080367Y0200666D01*
X0080367Y0202934D01*
X0079499Y0205029D01*
X0077895Y0206632D01*
X0077490Y0206800D01*
X0077895Y0206968D01*
X0079499Y0208571D01*
X0080367Y0210666D01*
X0080367Y0212934D01*
X0079499Y0215029D01*
X0077895Y0216632D01*
X0077490Y0216800D01*
X0077895Y0216968D01*
X0079499Y0218571D01*
X0080367Y0220666D01*
X0080367Y0222934D01*
X0079499Y0225029D01*
X0077895Y0226632D01*
X0077490Y0226800D01*
X0077895Y0226968D01*
X0079499Y0228571D01*
X0080367Y0230666D01*
X0080367Y0232934D01*
X0079499Y0235029D01*
X0077895Y0236632D01*
X0077490Y0236800D01*
X0077895Y0236968D01*
X0079499Y0238571D01*
X0080367Y0240666D01*
X0080367Y0242934D01*
X0079499Y0245029D01*
X0077895Y0246632D01*
X0077490Y0246800D01*
X0077895Y0246968D01*
X0079499Y0248571D01*
X0080367Y0250666D01*
X0080367Y0252934D01*
X0079499Y0255029D01*
X0077895Y0256632D01*
X0077202Y0256919D01*
X0077549Y0257096D01*
X0078250Y0257605D01*
X0078862Y0258217D01*
X0079371Y0258917D01*
X0079764Y0259689D01*
X0080031Y0260512D01*
X0080167Y0261367D01*
X0080167Y0261600D01*
X0074867Y0261600D01*
X0074867Y0262000D01*
X0080167Y0262000D01*
X0080167Y0262233D01*
X0080031Y0263088D01*
X0079764Y0263911D01*
X0079371Y0264683D01*
X0078862Y0265383D01*
X0078250Y0265995D01*
X0077549Y0266504D01*
X0077202Y0266681D01*
X0077895Y0266968D01*
X0079499Y0268571D01*
X0080367Y0270666D01*
X0080367Y0272934D01*
X0079499Y0275029D01*
X0077895Y0276632D01*
X0075800Y0277500D01*
X0073533Y0277500D01*
X0071438Y0276632D01*
X0069834Y0275029D01*
X0068967Y0272934D01*
X0068967Y0270666D01*
X0069834Y0268571D01*
X0071438Y0266968D01*
X0072131Y0266681D01*
X0071784Y0266504D01*
X0071084Y0265995D01*
X0070471Y0265383D01*
X0069963Y0264683D01*
X0069570Y0263911D01*
X0069302Y0263088D01*
X0069167Y0262233D01*
X0069167Y0262000D01*
X0074467Y0262000D01*
X0074467Y0261600D01*
X0069167Y0261600D01*
X0069167Y0261367D01*
X0069302Y0260512D01*
X0069570Y0259689D01*
X0069963Y0258917D01*
X0070471Y0258217D01*
X0071084Y0257605D01*
X0071784Y0257096D01*
X0072131Y0256919D01*
X0071438Y0256632D01*
X0069834Y0255029D01*
X0068967Y0252934D01*
X0068967Y0250666D01*
X0069834Y0248571D01*
X0071438Y0246968D01*
X0071843Y0246800D01*
X0071438Y0246632D01*
X0069834Y0245029D01*
X0068967Y0242934D01*
X0068967Y0240666D01*
X0069834Y0238571D01*
X0070068Y0238337D01*
X0053651Y0221919D01*
X0052947Y0221216D01*
X0052567Y0220297D01*
X0052567Y0169312D01*
X0051870Y0169312D01*
X0050698Y0168140D01*
X0050698Y0167400D01*
X0038635Y0167400D01*
X0038635Y0168140D01*
X0037464Y0169312D01*
X0031870Y0169312D01*
X0030698Y0168140D01*
X0030698Y0162153D01*
X0031051Y0161800D01*
X0030698Y0161447D01*
X0030698Y0155460D01*
X0031870Y0154288D01*
X0032767Y0154288D01*
X0032767Y0151192D01*
X0032061Y0150900D01*
X0030767Y0149606D01*
X0030067Y0147915D01*
X0030067Y0140885D01*
X0030767Y0139194D01*
X0032061Y0137900D01*
X0033752Y0137200D01*
X0035582Y0137200D01*
X0037272Y0137900D01*
X0038566Y0139194D01*
X0039267Y0140885D01*
X0039267Y0147915D01*
X0038566Y0149606D01*
X0037767Y0150405D01*
X0037767Y0154591D01*
X0038635Y0155460D01*
X0038635Y0161447D01*
X0038282Y0161800D01*
X0038635Y0162153D01*
X0038635Y0162400D01*
X0050698Y0162400D01*
X0050698Y0162153D01*
X0051051Y0161800D01*
X0050698Y0161447D01*
X0050698Y0155460D01*
X0051870Y0154288D01*
X0054943Y0154288D01*
X0055131Y0154100D01*
X0052047Y0151016D01*
X0051667Y0150097D01*
X0051667Y0131800D01*
X0006667Y0131800D01*
X0006667Y0289762D01*
X0082667Y0289799D01*
X0082667Y0131800D01*
X0082667Y0131856D02*
X0077367Y0131856D01*
X0077367Y0133454D02*
X0082667Y0133454D01*
X0082667Y0135053D02*
X0077367Y0135053D01*
X0077367Y0136651D02*
X0082667Y0136651D01*
X0082667Y0138250D02*
X0077367Y0138250D01*
X0077367Y0139848D02*
X0082667Y0139848D01*
X0082667Y0141447D02*
X0077367Y0141447D01*
X0077367Y0143045D02*
X0082667Y0143045D01*
X0082667Y0144644D02*
X0077367Y0144644D01*
X0077367Y0146242D02*
X0082667Y0146242D01*
X0082667Y0147841D02*
X0077367Y0147841D01*
X0077367Y0149439D02*
X0082667Y0149439D01*
X0082667Y0151038D02*
X0077367Y0151038D01*
X0077367Y0152636D02*
X0082667Y0152636D01*
X0082667Y0154235D02*
X0077367Y0154235D01*
X0076669Y0155833D02*
X0082667Y0155833D01*
X0082667Y0157432D02*
X0078359Y0157432D01*
X0079689Y0159030D02*
X0082667Y0159030D01*
X0082667Y0160629D02*
X0080351Y0160629D01*
X0080367Y0162227D02*
X0082667Y0162227D01*
X0082667Y0163826D02*
X0079997Y0163826D01*
X0079103Y0165424D02*
X0082667Y0165424D01*
X0082667Y0167023D02*
X0077951Y0167023D01*
X0079520Y0168621D02*
X0082667Y0168621D01*
X0082667Y0170220D02*
X0080182Y0170220D01*
X0080367Y0171818D02*
X0082667Y0171818D01*
X0082667Y0173417D02*
X0080167Y0173417D01*
X0079504Y0175015D02*
X0082667Y0175015D01*
X0082667Y0176614D02*
X0077914Y0176614D01*
X0079140Y0178212D02*
X0082667Y0178212D01*
X0082667Y0179811D02*
X0080012Y0179811D01*
X0080367Y0181409D02*
X0082667Y0181409D01*
X0082667Y0183008D02*
X0080336Y0183008D01*
X0079674Y0184606D02*
X0082667Y0184606D01*
X0082667Y0186205D02*
X0078323Y0186205D01*
X0078731Y0187803D02*
X0082667Y0187803D01*
X0082667Y0189402D02*
X0079843Y0189402D01*
X0080367Y0191001D02*
X0082667Y0191001D01*
X0082667Y0192599D02*
X0080367Y0192599D01*
X0079843Y0194198D02*
X0082667Y0194198D01*
X0082667Y0195796D02*
X0078732Y0195796D01*
X0078322Y0197395D02*
X0082667Y0197395D01*
X0082667Y0198993D02*
X0079674Y0198993D01*
X0080336Y0200592D02*
X0082667Y0200592D01*
X0082667Y0202190D02*
X0080367Y0202190D01*
X0080013Y0203789D02*
X0082667Y0203789D01*
X0082667Y0205387D02*
X0079141Y0205387D01*
X0077913Y0206986D02*
X0082667Y0206986D01*
X0082667Y0208584D02*
X0079504Y0208584D01*
X0080166Y0210183D02*
X0082667Y0210183D01*
X0082667Y0211781D02*
X0080367Y0211781D01*
X0080182Y0213380D02*
X0082667Y0213380D01*
X0082667Y0214978D02*
X0079520Y0214978D01*
X0079103Y0218175D02*
X0082667Y0218175D01*
X0082667Y0216577D02*
X0077951Y0216577D01*
X0079997Y0219774D02*
X0082667Y0219774D01*
X0082667Y0221372D02*
X0080367Y0221372D01*
X0080351Y0222971D02*
X0082667Y0222971D01*
X0082667Y0224569D02*
X0079689Y0224569D01*
X0078360Y0226168D02*
X0082667Y0226168D01*
X0082667Y0227766D02*
X0078694Y0227766D01*
X0079828Y0229365D02*
X0082667Y0229365D01*
X0082667Y0230963D02*
X0080367Y0230963D01*
X0080367Y0232562D02*
X0082667Y0232562D01*
X0082667Y0234160D02*
X0079859Y0234160D01*
X0078769Y0235759D02*
X0082667Y0235759D01*
X0082667Y0237357D02*
X0078285Y0237357D01*
X0079658Y0238956D02*
X0082667Y0238956D01*
X0082667Y0240554D02*
X0080320Y0240554D01*
X0080367Y0242153D02*
X0082667Y0242153D01*
X0082667Y0243751D02*
X0080028Y0243751D01*
X0079178Y0245350D02*
X0082667Y0245350D01*
X0082667Y0246948D02*
X0077849Y0246948D01*
X0079475Y0248547D02*
X0082667Y0248547D01*
X0082667Y0250145D02*
X0080151Y0250145D01*
X0080367Y0251744D02*
X0082667Y0251744D01*
X0082667Y0253342D02*
X0080197Y0253342D01*
X0079535Y0254941D02*
X0082667Y0254941D01*
X0082667Y0256539D02*
X0077988Y0256539D01*
X0078783Y0258138D02*
X0082667Y0258138D01*
X0082667Y0259737D02*
X0079779Y0259737D01*
X0080162Y0261335D02*
X0082667Y0261335D01*
X0082667Y0262934D02*
X0080056Y0262934D01*
X0079447Y0264532D02*
X0082667Y0264532D01*
X0082667Y0266131D02*
X0078063Y0266131D01*
X0078657Y0267729D02*
X0082667Y0267729D01*
X0082667Y0269328D02*
X0079812Y0269328D01*
X0080367Y0270926D02*
X0082667Y0270926D01*
X0082667Y0272525D02*
X0080367Y0272525D01*
X0079874Y0274123D02*
X0082667Y0274123D01*
X0082667Y0275722D02*
X0078806Y0275722D01*
X0076235Y0277320D02*
X0082667Y0277320D01*
X0082667Y0278919D02*
X0036667Y0278919D01*
X0036667Y0279351D02*
X0036538Y0279479D01*
X0036667Y0279607D01*
X0036667Y0283648D01*
X0035319Y0284995D01*
X0033414Y0284995D01*
X0032346Y0283927D01*
X0027009Y0283927D01*
X0025661Y0282580D01*
X0025661Y0279607D01*
X0025789Y0279479D01*
X0024594Y0278283D01*
X0024594Y0276378D01*
X0025941Y0275030D01*
X0028076Y0275030D01*
X0028465Y0274641D01*
X0027796Y0273973D01*
X0027796Y0269932D01*
X0028999Y0268730D01*
X0028864Y0268595D01*
X0027796Y0267527D01*
X0027796Y0265622D01*
X0027911Y0265507D01*
X0027796Y0265392D01*
X0027796Y0262419D01*
X0027931Y0262284D01*
X0027796Y0262149D01*
X0027796Y0257041D01*
X0027931Y0256906D01*
X0027283Y0256258D01*
X0026729Y0255704D01*
X0026729Y0255704D01*
X0026454Y0255429D01*
X0025661Y0254636D01*
X0025661Y0250596D01*
X0026857Y0249400D01*
X0025661Y0248204D01*
X0025661Y0245231D01*
X0027009Y0243884D01*
X0027796Y0243884D01*
X0027796Y0239863D01*
X0027009Y0239863D01*
X0025661Y0238516D01*
X0025661Y0236610D01*
X0027009Y0235263D01*
X0027796Y0235263D01*
X0027796Y0233408D01*
X0028590Y0232614D01*
X0028999Y0232205D01*
X0028864Y0232070D01*
X0027796Y0231003D01*
X0027796Y0225895D01*
X0028465Y0225226D01*
X0027796Y0224557D01*
X0027796Y0220517D01*
X0028999Y0219314D01*
X0028864Y0219179D01*
X0027796Y0218112D01*
X0027796Y0216206D01*
X0027911Y0216091D01*
X0027796Y0215976D01*
X0027796Y0213004D01*
X0029144Y0211656D01*
X0030999Y0211656D01*
X0030999Y0209804D01*
X0027009Y0209804D01*
X0025661Y0208457D01*
X0025661Y0205484D01*
X0027009Y0204136D01*
X0027796Y0204136D01*
X0027796Y0203309D01*
X0028979Y0202126D01*
X0027796Y0200944D01*
X0027796Y0199038D01*
X0028465Y0198370D01*
X0027796Y0197701D01*
X0027796Y0193660D01*
X0028999Y0192458D01*
X0028864Y0192323D01*
X0027796Y0191255D01*
X0027796Y0186147D01*
X0029144Y0184800D01*
X0037454Y0184800D01*
X0038802Y0186147D01*
X0038802Y0188053D01*
X0037454Y0189400D01*
X0036667Y0189400D01*
X0036667Y0191255D01*
X0035850Y0192072D01*
X0035599Y0192323D01*
X0035464Y0192458D01*
X0036667Y0193660D01*
X0036667Y0198768D01*
X0035998Y0199437D01*
X0036667Y0200106D01*
X0036667Y0205214D01*
X0036532Y0205349D01*
X0036667Y0205484D01*
X0036667Y0209524D01*
X0036538Y0209653D01*
X0036667Y0209781D01*
X0036667Y0212754D01*
X0036542Y0212879D01*
X0036667Y0213004D01*
X0036667Y0214909D01*
X0036552Y0215024D01*
X0036667Y0215139D01*
X0036667Y0217044D01*
X0036552Y0217159D01*
X0036667Y0217274D01*
X0036667Y0219179D01*
X0035998Y0219848D01*
X0036667Y0220517D01*
X0036667Y0225625D01*
X0036532Y0225760D01*
X0036667Y0225895D01*
X0036667Y0227800D01*
X0035484Y0228982D01*
X0036667Y0230165D01*
X0036667Y0232070D01*
X0035998Y0232739D01*
X0036667Y0233408D01*
X0036667Y0238516D01*
X0035998Y0239184D01*
X0036667Y0239853D01*
X0036667Y0244961D01*
X0036532Y0245096D01*
X0036667Y0245231D01*
X0036667Y0249272D01*
X0036005Y0249934D01*
X0036667Y0250596D01*
X0036667Y0254636D01*
X0035850Y0255453D01*
X0035464Y0255839D01*
X0036387Y0256761D01*
X0037454Y0256761D01*
X0038802Y0258109D01*
X0038802Y0261082D01*
X0037734Y0262149D01*
X0036667Y0263217D01*
X0036667Y0264324D01*
X0036552Y0264439D01*
X0036667Y0264554D01*
X0036667Y0266460D01*
X0036552Y0266574D01*
X0036667Y0266689D01*
X0036667Y0268595D01*
X0035998Y0269263D01*
X0036667Y0269932D01*
X0036667Y0275040D01*
X0036532Y0275175D01*
X0036667Y0275310D01*
X0036667Y0279351D01*
X0036667Y0280517D02*
X0082667Y0280517D01*
X0082667Y0282116D02*
X0036667Y0282116D01*
X0036600Y0283714D02*
X0082667Y0283714D01*
X0082667Y0285313D02*
X0006667Y0285313D01*
X0006667Y0286911D02*
X0082667Y0286911D01*
X0082667Y0288510D02*
X0006667Y0288510D01*
X0006667Y0283714D02*
X0026795Y0283714D01*
X0025661Y0282116D02*
X0006667Y0282116D01*
X0006667Y0280517D02*
X0025661Y0280517D01*
X0025229Y0278919D02*
X0006667Y0278919D01*
X0006667Y0277320D02*
X0013099Y0277320D01*
X0013533Y0277500D02*
X0011438Y0276632D01*
X0009834Y0275029D01*
X0008967Y0272934D01*
X0008967Y0270666D01*
X0009834Y0268571D01*
X0011438Y0266968D01*
X0011843Y0266800D01*
X0011438Y0266632D01*
X0009834Y0265029D01*
X0008967Y0262934D01*
X0008967Y0260666D01*
X0009834Y0258571D01*
X0011438Y0256968D01*
X0012131Y0256681D01*
X0011784Y0256504D01*
X0011084Y0255995D01*
X0010471Y0255383D01*
X0009963Y0254683D01*
X0009570Y0253911D01*
X0009302Y0253088D01*
X0009167Y0252233D01*
X0009167Y0252000D01*
X0014467Y0252000D01*
X0014467Y0251600D01*
X0014867Y0251600D01*
X0014867Y0252000D01*
X0020167Y0252000D01*
X0020167Y0252233D01*
X0020031Y0253088D01*
X0019764Y0253911D01*
X0019371Y0254683D01*
X0018862Y0255383D01*
X0018250Y0255995D01*
X0017549Y0256504D01*
X0017202Y0256681D01*
X0017895Y0256968D01*
X0019499Y0258571D01*
X0020367Y0260666D01*
X0020367Y0262934D01*
X0019499Y0265029D01*
X0017895Y0266632D01*
X0017490Y0266800D01*
X0017895Y0266968D01*
X0019499Y0268571D01*
X0020367Y0270666D01*
X0020367Y0272934D01*
X0019499Y0275029D01*
X0017895Y0276632D01*
X0015800Y0277500D01*
X0013533Y0277500D01*
X0016235Y0277320D02*
X0024594Y0277320D01*
X0025250Y0275722D02*
X0018806Y0275722D01*
X0019874Y0274123D02*
X0027947Y0274123D01*
X0027796Y0272525D02*
X0020367Y0272525D01*
X0020367Y0270926D02*
X0027796Y0270926D01*
X0028401Y0269328D02*
X0019812Y0269328D01*
X0018657Y0267729D02*
X0027998Y0267729D01*
X0027796Y0266131D02*
X0018397Y0266131D01*
X0019705Y0264532D02*
X0027796Y0264532D01*
X0027796Y0262934D02*
X0020367Y0262934D01*
X0020367Y0261335D02*
X0027796Y0261335D01*
X0027796Y0259737D02*
X0019982Y0259737D01*
X0019066Y0258138D02*
X0027796Y0258138D01*
X0027565Y0256539D02*
X0017480Y0256539D01*
X0019183Y0254941D02*
X0025966Y0254941D01*
X0025661Y0253342D02*
X0019949Y0253342D01*
X0020167Y0251600D02*
X0014867Y0251600D01*
X0014867Y0242000D01*
X0020167Y0242000D01*
X0020167Y0242233D01*
X0020031Y0243088D01*
X0019764Y0243911D01*
X0019371Y0244683D01*
X0018862Y0245383D01*
X0018250Y0245995D01*
X0017549Y0246504D01*
X0016968Y0246800D01*
X0017549Y0247096D01*
X0018250Y0247605D01*
X0018862Y0248217D01*
X0019371Y0248917D01*
X0019764Y0249689D01*
X0020031Y0250512D01*
X0020167Y0251367D01*
X0020167Y0251600D01*
X0019912Y0250145D02*
X0026111Y0250145D01*
X0026004Y0248547D02*
X0019102Y0248547D01*
X0018886Y0245350D02*
X0025661Y0245350D01*
X0025661Y0246948D02*
X0017260Y0246948D01*
X0014867Y0246948D02*
X0014467Y0246948D01*
X0014467Y0246300D02*
X0014467Y0242000D01*
X0014867Y0242000D01*
X0014867Y0241600D01*
X0020167Y0241600D01*
X0020167Y0241367D01*
X0020031Y0240512D01*
X0019764Y0239689D01*
X0019371Y0238917D01*
X0018862Y0238217D01*
X0018250Y0237605D01*
X0017549Y0237096D01*
X0017202Y0236919D01*
X0017895Y0236632D01*
X0019499Y0235029D01*
X0020367Y0232934D01*
X0020367Y0230666D01*
X0019499Y0228571D01*
X0017895Y0226968D01*
X0017490Y0226800D01*
X0017895Y0226632D01*
X0019499Y0225029D01*
X0020367Y0222934D01*
X0020367Y0220666D01*
X0019499Y0218571D01*
X0017895Y0216968D01*
X0017490Y0216800D01*
X0017895Y0216632D01*
X0019499Y0215029D01*
X0020367Y0212934D01*
X0020367Y0210666D01*
X0019499Y0208571D01*
X0017895Y0206968D01*
X0017490Y0206800D01*
X0017895Y0206632D01*
X0019499Y0205029D01*
X0020367Y0202934D01*
X0020367Y0200666D01*
X0019499Y0198571D01*
X0017895Y0196968D01*
X0017490Y0196800D01*
X0017895Y0196632D01*
X0019499Y0195029D01*
X0020367Y0192934D01*
X0020367Y0190666D01*
X0019499Y0188571D01*
X0017895Y0186968D01*
X0017490Y0186800D01*
X0017895Y0186632D01*
X0019499Y0185029D01*
X0020367Y0182934D01*
X0020367Y0180666D01*
X0019499Y0178571D01*
X0017895Y0176968D01*
X0017490Y0176800D01*
X0017895Y0176632D01*
X0019499Y0175029D01*
X0020367Y0172934D01*
X0020367Y0170666D01*
X0019499Y0168571D01*
X0017895Y0166968D01*
X0017490Y0166800D01*
X0017895Y0166632D01*
X0019499Y0165029D01*
X0020367Y0162934D01*
X0020367Y0160666D01*
X0019499Y0158571D01*
X0017895Y0156968D01*
X0015800Y0156100D01*
X0013533Y0156100D01*
X0011438Y0156968D01*
X0009834Y0158571D01*
X0008967Y0160666D01*
X0008967Y0162934D01*
X0009834Y0165029D01*
X0011438Y0166632D01*
X0011843Y0166800D01*
X0011438Y0166968D01*
X0009834Y0168571D01*
X0008967Y0170666D01*
X0008967Y0172934D01*
X0009834Y0175029D01*
X0011438Y0176632D01*
X0011843Y0176800D01*
X0011438Y0176968D01*
X0009834Y0178571D01*
X0008967Y0180666D01*
X0008967Y0182934D01*
X0009834Y0185029D01*
X0011438Y0186632D01*
X0011843Y0186800D01*
X0011438Y0186968D01*
X0009834Y0188571D01*
X0008967Y0190666D01*
X0008967Y0192934D01*
X0009834Y0195029D01*
X0011438Y0196632D01*
X0011843Y0196800D01*
X0011438Y0196968D01*
X0009834Y0198571D01*
X0008967Y0200666D01*
X0008967Y0202934D01*
X0009834Y0205029D01*
X0011438Y0206632D01*
X0011843Y0206800D01*
X0011438Y0206968D01*
X0009834Y0208571D01*
X0008967Y0210666D01*
X0008967Y0212934D01*
X0009834Y0215029D01*
X0011438Y0216632D01*
X0011843Y0216800D01*
X0011438Y0216968D01*
X0009834Y0218571D01*
X0008967Y0220666D01*
X0008967Y0222934D01*
X0009834Y0225029D01*
X0011438Y0226632D01*
X0011843Y0226800D01*
X0011438Y0226968D01*
X0009834Y0228571D01*
X0008967Y0230666D01*
X0008967Y0232934D01*
X0009834Y0235029D01*
X0011438Y0236632D01*
X0012131Y0236919D01*
X0011784Y0237096D01*
X0011084Y0237605D01*
X0010471Y0238217D01*
X0009963Y0238917D01*
X0009570Y0239689D01*
X0009302Y0240512D01*
X0009167Y0241367D01*
X0009167Y0241600D01*
X0014467Y0241600D01*
X0014467Y0242000D01*
X0009167Y0242000D01*
X0009167Y0242233D01*
X0009302Y0243088D01*
X0009570Y0243911D01*
X0009963Y0244683D01*
X0010471Y0245383D01*
X0011084Y0245995D01*
X0011784Y0246504D01*
X0012365Y0246800D01*
X0011784Y0247096D01*
X0011084Y0247605D01*
X0010471Y0248217D01*
X0009963Y0248917D01*
X0009570Y0249689D01*
X0009302Y0250512D01*
X0009167Y0251367D01*
X0009167Y0251600D01*
X0014467Y0251600D01*
X0014467Y0246300D01*
X0014467Y0245350D02*
X0014867Y0245350D01*
X0014867Y0243751D02*
X0014467Y0243751D01*
X0014467Y0242153D02*
X0014867Y0242153D01*
X0012074Y0246948D02*
X0006667Y0246948D01*
X0006667Y0245350D02*
X0010447Y0245350D01*
X0009518Y0243751D02*
X0006667Y0243751D01*
X0006667Y0242153D02*
X0009167Y0242153D01*
X0009295Y0240554D02*
X0006667Y0240554D01*
X0006667Y0238956D02*
X0009943Y0238956D01*
X0010564Y0235759D02*
X0006667Y0235759D01*
X0006667Y0237357D02*
X0011424Y0237357D01*
X0009475Y0234160D02*
X0006667Y0234160D01*
X0006667Y0232562D02*
X0008967Y0232562D01*
X0008967Y0230963D02*
X0006667Y0230963D01*
X0006667Y0229365D02*
X0009506Y0229365D01*
X0010639Y0227766D02*
X0006667Y0227766D01*
X0006667Y0226168D02*
X0010973Y0226168D01*
X0009644Y0224569D02*
X0006667Y0224569D01*
X0006667Y0222971D02*
X0008982Y0222971D01*
X0008967Y0221372D02*
X0006667Y0221372D01*
X0006667Y0219774D02*
X0009336Y0219774D01*
X0010230Y0218175D02*
X0006667Y0218175D01*
X0006667Y0216577D02*
X0011382Y0216577D01*
X0009813Y0214978D02*
X0006667Y0214978D01*
X0006667Y0213380D02*
X0009151Y0213380D01*
X0008967Y0211781D02*
X0006667Y0211781D01*
X0006667Y0210183D02*
X0009167Y0210183D01*
X0009829Y0208584D02*
X0006667Y0208584D01*
X0006667Y0206986D02*
X0011420Y0206986D01*
X0010193Y0205387D02*
X0006667Y0205387D01*
X0006667Y0203789D02*
X0009321Y0203789D01*
X0008967Y0202190D02*
X0006667Y0202190D01*
X0006667Y0200592D02*
X0008998Y0200592D01*
X0009660Y0198993D02*
X0006667Y0198993D01*
X0006667Y0197395D02*
X0011011Y0197395D01*
X0010602Y0195796D02*
X0006667Y0195796D01*
X0006667Y0194198D02*
X0009490Y0194198D01*
X0008967Y0192599D02*
X0006667Y0192599D01*
X0006667Y0191001D02*
X0008967Y0191001D01*
X0009490Y0189402D02*
X0006667Y0189402D01*
X0006667Y0187803D02*
X0010602Y0187803D01*
X0011011Y0186205D02*
X0006667Y0186205D01*
X0006667Y0184606D02*
X0009659Y0184606D01*
X0008997Y0183008D02*
X0006667Y0183008D01*
X0006667Y0181409D02*
X0008967Y0181409D01*
X0009321Y0179811D02*
X0006667Y0179811D01*
X0006667Y0178212D02*
X0010193Y0178212D01*
X0011420Y0176614D02*
X0006667Y0176614D01*
X0006667Y0175015D02*
X0009829Y0175015D01*
X0009167Y0173417D02*
X0006667Y0173417D01*
X0006667Y0171818D02*
X0008967Y0171818D01*
X0009152Y0170220D02*
X0006667Y0170220D01*
X0006667Y0168621D02*
X0009814Y0168621D01*
X0010230Y0165424D02*
X0006667Y0165424D01*
X0006667Y0163826D02*
X0009336Y0163826D01*
X0008967Y0162227D02*
X0006667Y0162227D01*
X0006667Y0160629D02*
X0008982Y0160629D01*
X0009644Y0159030D02*
X0006667Y0159030D01*
X0006667Y0157432D02*
X0010974Y0157432D01*
X0013752Y0151600D02*
X0012061Y0150900D01*
X0010767Y0149606D01*
X0010067Y0147915D01*
X0010067Y0140885D01*
X0010767Y0139194D01*
X0012061Y0137900D01*
X0013752Y0137200D01*
X0015582Y0137200D01*
X0017272Y0137900D01*
X0018566Y0139194D01*
X0019267Y0140885D01*
X0019267Y0147915D01*
X0018566Y0149606D01*
X0017272Y0150900D01*
X0015582Y0151600D01*
X0013752Y0151600D01*
X0012394Y0151038D02*
X0006667Y0151038D01*
X0006667Y0152636D02*
X0032767Y0152636D01*
X0032767Y0154235D02*
X0006667Y0154235D01*
X0006667Y0155833D02*
X0030698Y0155833D01*
X0030698Y0157432D02*
X0018359Y0157432D01*
X0019689Y0159030D02*
X0030698Y0159030D01*
X0030698Y0160629D02*
X0020351Y0160629D01*
X0020367Y0162227D02*
X0030698Y0162227D01*
X0030698Y0163826D02*
X0019997Y0163826D01*
X0019103Y0165424D02*
X0030698Y0165424D01*
X0030698Y0167023D02*
X0017951Y0167023D01*
X0019520Y0168621D02*
X0031179Y0168621D01*
X0037767Y0154235D02*
X0054996Y0154235D01*
X0053667Y0152636D02*
X0037767Y0152636D01*
X0037767Y0151038D02*
X0052069Y0151038D01*
X0051667Y0149439D02*
X0038635Y0149439D01*
X0039267Y0147841D02*
X0051667Y0147841D01*
X0051667Y0146242D02*
X0039267Y0146242D01*
X0039267Y0144644D02*
X0051667Y0144644D01*
X0051667Y0143045D02*
X0039267Y0143045D01*
X0039267Y0141447D02*
X0051667Y0141447D01*
X0051667Y0139848D02*
X0038837Y0139848D01*
X0037622Y0138250D02*
X0051667Y0138250D01*
X0051667Y0136651D02*
X0006667Y0136651D01*
X0006667Y0135053D02*
X0051667Y0135053D01*
X0051667Y0133454D02*
X0006667Y0133454D01*
X0006667Y0131856D02*
X0051667Y0131856D01*
X0056667Y0142200D02*
X0056667Y0148564D01*
X0059702Y0151600D01*
X0062669Y0151600D01*
X0063664Y0151600D01*
X0064267Y0151850D01*
X0064267Y0142228D01*
X0064095Y0142400D01*
X0060238Y0142400D01*
X0059525Y0141687D01*
X0059372Y0141840D01*
X0058961Y0142077D01*
X0058504Y0142200D01*
X0057167Y0142200D01*
X0057167Y0136500D01*
X0057167Y0136500D01*
X0057167Y0142200D01*
X0056667Y0142200D01*
X0056667Y0143045D02*
X0064267Y0143045D01*
X0064267Y0144644D02*
X0056667Y0144644D01*
X0056667Y0146242D02*
X0064267Y0146242D01*
X0064267Y0147841D02*
X0056667Y0147841D01*
X0057541Y0149439D02*
X0064267Y0149439D01*
X0064267Y0151038D02*
X0059140Y0151038D01*
X0057167Y0141447D02*
X0057167Y0141447D01*
X0057167Y0139848D02*
X0057167Y0139848D01*
X0057167Y0138250D02*
X0057167Y0138250D01*
X0057167Y0136651D02*
X0057167Y0136651D01*
X0050698Y0155833D02*
X0038635Y0155833D01*
X0038635Y0157432D02*
X0050698Y0157432D01*
X0050698Y0159030D02*
X0038635Y0159030D01*
X0038635Y0160629D02*
X0050698Y0160629D01*
X0050698Y0162227D02*
X0038635Y0162227D01*
X0038154Y0168621D02*
X0051179Y0168621D01*
X0052567Y0170220D02*
X0020182Y0170220D01*
X0020367Y0171818D02*
X0052567Y0171818D01*
X0052567Y0173417D02*
X0020167Y0173417D01*
X0019504Y0175015D02*
X0052567Y0175015D01*
X0052567Y0176614D02*
X0017914Y0176614D01*
X0019140Y0178212D02*
X0052567Y0178212D01*
X0052567Y0179811D02*
X0020012Y0179811D01*
X0020367Y0181409D02*
X0052567Y0181409D01*
X0052567Y0183008D02*
X0020336Y0183008D01*
X0019674Y0184606D02*
X0052567Y0184606D01*
X0052567Y0186205D02*
X0038802Y0186205D01*
X0038802Y0187803D02*
X0052567Y0187803D01*
X0052567Y0189402D02*
X0036667Y0189402D01*
X0036667Y0191001D02*
X0052567Y0191001D01*
X0052567Y0192599D02*
X0035605Y0192599D01*
X0035599Y0192323D02*
X0035599Y0192323D01*
X0036667Y0194198D02*
X0052567Y0194198D01*
X0052567Y0195796D02*
X0036667Y0195796D01*
X0036667Y0197395D02*
X0052567Y0197395D01*
X0052567Y0198993D02*
X0036442Y0198993D01*
X0036667Y0200592D02*
X0052567Y0200592D01*
X0052567Y0202190D02*
X0036667Y0202190D01*
X0036667Y0203789D02*
X0052567Y0203789D01*
X0052567Y0205387D02*
X0036570Y0205387D01*
X0036667Y0206986D02*
X0052567Y0206986D01*
X0052567Y0208584D02*
X0036667Y0208584D01*
X0036667Y0210183D02*
X0052567Y0210183D01*
X0052567Y0211781D02*
X0036667Y0211781D01*
X0036667Y0213380D02*
X0052567Y0213380D01*
X0052567Y0214978D02*
X0036597Y0214978D01*
X0036667Y0216577D02*
X0052567Y0216577D01*
X0052567Y0218175D02*
X0036667Y0218175D01*
X0036072Y0219774D02*
X0052567Y0219774D01*
X0053103Y0221372D02*
X0036667Y0221372D01*
X0036667Y0222971D02*
X0054702Y0222971D01*
X0056300Y0224569D02*
X0036667Y0224569D01*
X0036667Y0226168D02*
X0057899Y0226168D01*
X0059497Y0227766D02*
X0036667Y0227766D01*
X0035867Y0229365D02*
X0061096Y0229365D01*
X0062694Y0230963D02*
X0036667Y0230963D01*
X0036175Y0232562D02*
X0064293Y0232562D01*
X0065891Y0234160D02*
X0036667Y0234160D01*
X0036667Y0235759D02*
X0067490Y0235759D01*
X0069088Y0237357D02*
X0036667Y0237357D01*
X0036227Y0238956D02*
X0069675Y0238956D01*
X0069013Y0240554D02*
X0036667Y0240554D01*
X0036667Y0242153D02*
X0068967Y0242153D01*
X0069305Y0243751D02*
X0036667Y0243751D01*
X0036667Y0245350D02*
X0070156Y0245350D01*
X0071485Y0246948D02*
X0036667Y0246948D01*
X0036667Y0248547D02*
X0069859Y0248547D01*
X0069182Y0250145D02*
X0036216Y0250145D01*
X0036667Y0251744D02*
X0068967Y0251744D01*
X0069136Y0253342D02*
X0036667Y0253342D01*
X0036362Y0254941D02*
X0069798Y0254941D01*
X0071345Y0256539D02*
X0036165Y0256539D01*
X0038802Y0258138D02*
X0070550Y0258138D01*
X0069554Y0259737D02*
X0038802Y0259737D01*
X0038548Y0261335D02*
X0069172Y0261335D01*
X0069278Y0262934D02*
X0036950Y0262934D01*
X0036645Y0264532D02*
X0069886Y0264532D01*
X0071270Y0266131D02*
X0036667Y0266131D01*
X0036667Y0267729D02*
X0070677Y0267729D01*
X0069521Y0269328D02*
X0036062Y0269328D01*
X0036667Y0270926D02*
X0068967Y0270926D01*
X0068967Y0272525D02*
X0036667Y0272525D01*
X0036667Y0274123D02*
X0069459Y0274123D01*
X0070527Y0275722D02*
X0036667Y0275722D01*
X0036667Y0277320D02*
X0073099Y0277320D01*
X0030999Y0210183D02*
X0020166Y0210183D01*
X0020367Y0211781D02*
X0029019Y0211781D01*
X0027796Y0213380D02*
X0020182Y0213380D01*
X0019520Y0214978D02*
X0027796Y0214978D01*
X0027796Y0216577D02*
X0017951Y0216577D01*
X0019103Y0218175D02*
X0027860Y0218175D01*
X0028539Y0219774D02*
X0019997Y0219774D01*
X0020367Y0221372D02*
X0027796Y0221372D01*
X0027796Y0222971D02*
X0020351Y0222971D01*
X0019689Y0224569D02*
X0027808Y0224569D01*
X0027796Y0226168D02*
X0018360Y0226168D01*
X0018694Y0227766D02*
X0027796Y0227766D01*
X0027796Y0229365D02*
X0019828Y0229365D01*
X0020367Y0230963D02*
X0027796Y0230963D01*
X0028642Y0232562D02*
X0020367Y0232562D01*
X0019859Y0234160D02*
X0027796Y0234160D01*
X0026513Y0235759D02*
X0018769Y0235759D01*
X0017909Y0237357D02*
X0025661Y0237357D01*
X0026101Y0238956D02*
X0019390Y0238956D01*
X0020038Y0240554D02*
X0027796Y0240554D01*
X0027796Y0242153D02*
X0020167Y0242153D01*
X0019816Y0243751D02*
X0027796Y0243751D01*
X0025661Y0251744D02*
X0014867Y0251744D01*
X0014467Y0251744D02*
X0006667Y0251744D01*
X0006667Y0253342D02*
X0009385Y0253342D01*
X0010150Y0254941D02*
X0006667Y0254941D01*
X0006667Y0256539D02*
X0011854Y0256539D01*
X0010268Y0258138D02*
X0006667Y0258138D01*
X0006667Y0259737D02*
X0009352Y0259737D01*
X0008967Y0261335D02*
X0006667Y0261335D01*
X0006667Y0262934D02*
X0008967Y0262934D01*
X0009629Y0264532D02*
X0006667Y0264532D01*
X0006667Y0266131D02*
X0010936Y0266131D01*
X0010677Y0267729D02*
X0006667Y0267729D01*
X0006667Y0269328D02*
X0009521Y0269328D01*
X0008967Y0270926D02*
X0006667Y0270926D01*
X0006667Y0272525D02*
X0008967Y0272525D01*
X0009459Y0274123D02*
X0006667Y0274123D01*
X0006667Y0275722D02*
X0010527Y0275722D01*
X0009421Y0250145D02*
X0006667Y0250145D01*
X0006667Y0248547D02*
X0010232Y0248547D01*
X0014467Y0248547D02*
X0014867Y0248547D01*
X0014867Y0250145D02*
X0014467Y0250145D01*
X0019504Y0208584D02*
X0025789Y0208584D01*
X0025661Y0206986D02*
X0017913Y0206986D01*
X0019141Y0205387D02*
X0025758Y0205387D01*
X0027796Y0203789D02*
X0020013Y0203789D01*
X0020367Y0202190D02*
X0028915Y0202190D01*
X0027796Y0200592D02*
X0020336Y0200592D01*
X0019674Y0198993D02*
X0027842Y0198993D01*
X0027796Y0197395D02*
X0018322Y0197395D01*
X0018732Y0195796D02*
X0027796Y0195796D01*
X0027796Y0194198D02*
X0019843Y0194198D01*
X0020367Y0192599D02*
X0028858Y0192599D01*
X0027796Y0191001D02*
X0020367Y0191001D01*
X0019843Y0189402D02*
X0027796Y0189402D01*
X0027796Y0187803D02*
X0018731Y0187803D01*
X0018323Y0186205D02*
X0027796Y0186205D01*
X0025582Y0151600D02*
X0023752Y0151600D01*
X0022061Y0150900D01*
X0020767Y0149606D01*
X0020067Y0147915D01*
X0020067Y0140885D01*
X0020767Y0139194D01*
X0022061Y0137900D01*
X0023752Y0137200D01*
X0025582Y0137200D01*
X0027272Y0137900D01*
X0028566Y0139194D01*
X0029267Y0140885D01*
X0029267Y0147915D01*
X0028566Y0149606D01*
X0027272Y0150900D01*
X0025582Y0151600D01*
X0026939Y0151038D02*
X0032394Y0151038D01*
X0030698Y0149439D02*
X0028635Y0149439D01*
X0029267Y0147841D02*
X0030067Y0147841D01*
X0030067Y0146242D02*
X0029267Y0146242D01*
X0029267Y0144644D02*
X0030067Y0144644D01*
X0030067Y0143045D02*
X0029267Y0143045D01*
X0029267Y0141447D02*
X0030067Y0141447D01*
X0030496Y0139848D02*
X0028837Y0139848D01*
X0027622Y0138250D02*
X0031712Y0138250D01*
X0021712Y0138250D02*
X0017622Y0138250D01*
X0018837Y0139848D02*
X0020496Y0139848D01*
X0020067Y0141447D02*
X0019267Y0141447D01*
X0019267Y0143045D02*
X0020067Y0143045D01*
X0020067Y0144644D02*
X0019267Y0144644D01*
X0019267Y0146242D02*
X0020067Y0146242D01*
X0020067Y0147841D02*
X0019267Y0147841D01*
X0018635Y0149439D02*
X0020698Y0149439D01*
X0022394Y0151038D02*
X0016939Y0151038D01*
X0011712Y0138250D02*
X0006667Y0138250D01*
X0006667Y0139848D02*
X0010496Y0139848D01*
X0010067Y0141447D02*
X0006667Y0141447D01*
X0006667Y0143045D02*
X0010067Y0143045D01*
X0010067Y0144644D02*
X0006667Y0144644D01*
X0006667Y0146242D02*
X0010067Y0146242D01*
X0010067Y0147841D02*
X0006667Y0147841D01*
X0006667Y0149439D02*
X0010698Y0149439D01*
X0011383Y0167023D02*
X0006667Y0167023D01*
X0043880Y0107878D02*
X0054367Y0107878D01*
X0054367Y0109476D02*
X0045479Y0109476D01*
X0047077Y0111075D02*
X0054367Y0111075D01*
X0054067Y0112673D02*
X0048676Y0112673D01*
X0050274Y0114272D02*
X0054067Y0114272D01*
X0052346Y0115870D02*
X0051873Y0115870D01*
X0076693Y0090294D02*
X0082667Y0090294D01*
X0082667Y0091893D02*
X0078429Y0091893D01*
X0079009Y0093491D02*
X0082667Y0093491D01*
X0082667Y0095090D02*
X0079067Y0095090D01*
X0079067Y0096688D02*
X0082667Y0096688D01*
X0082667Y0098287D02*
X0079067Y0098287D01*
X0079045Y0099885D02*
X0082667Y0099885D01*
X0082667Y0101484D02*
X0078543Y0101484D01*
X0077084Y0103082D02*
X0082667Y0103082D01*
X0082667Y0040740D02*
X0059774Y0040740D01*
X0061276Y0039142D02*
X0082667Y0039142D01*
X0082667Y0037543D02*
X0061867Y0037543D01*
X0061867Y0035945D02*
X0082667Y0035945D01*
X0082667Y0034346D02*
X0061229Y0034346D01*
X0059504Y0032748D02*
X0082667Y0032748D01*
X0082667Y0015164D02*
X0041467Y0015164D01*
X0041467Y0013566D02*
X0082667Y0013566D01*
X0082667Y0011967D02*
X0041467Y0011967D01*
X0041467Y0010369D02*
X0082667Y0010369D01*
X0082667Y0008770D02*
X0041467Y0008770D01*
X0041467Y0007172D02*
X0082667Y0007172D01*
X0082667Y0005573D02*
X0040985Y0005573D01*
X0035467Y0005573D02*
X0033867Y0005573D01*
X0033867Y0007172D02*
X0035467Y0007172D01*
X0035467Y0008770D02*
X0033867Y0008770D01*
X0033867Y0010369D02*
X0035467Y0010369D01*
X0035467Y0011967D02*
X0033867Y0011967D01*
X0033867Y0013566D02*
X0035467Y0013566D01*
X0035467Y0015164D02*
X0033867Y0015164D01*
X0033867Y0016763D02*
X0021667Y0016763D01*
X0021667Y0018361D02*
X0027867Y0018361D01*
X0027867Y0019960D02*
X0021667Y0019960D01*
X0021667Y0021558D02*
X0027867Y0021558D01*
X0027867Y0023157D02*
X0021667Y0023157D01*
X0021667Y0024755D02*
X0027867Y0024755D01*
X0027867Y0015164D02*
X0021667Y0015164D01*
X0021667Y0013566D02*
X0027867Y0013566D01*
X0027867Y0011967D02*
X0021667Y0011967D01*
X0021667Y0010369D02*
X0027867Y0010369D01*
X0027867Y0008770D02*
X0021667Y0008770D01*
X0021667Y0007172D02*
X0027867Y0007172D01*
X0028348Y0005573D02*
X0021268Y0005573D01*
X0008065Y0005573D02*
X0006667Y0005573D01*
X0006667Y0003975D02*
X0082667Y0003975D01*
X0007667Y0007172D02*
X0006667Y0007172D01*
X0006667Y0008770D02*
X0007667Y0008770D01*
X0007667Y0010369D02*
X0006667Y0010369D01*
X0006667Y0011967D02*
X0007667Y0011967D01*
X0007667Y0013566D02*
X0006667Y0013566D01*
X0006667Y0015164D02*
X0007667Y0015164D01*
X0007667Y0016763D02*
X0006667Y0016763D01*
X0006667Y0018361D02*
X0007667Y0018361D01*
X0007667Y0019960D02*
X0006667Y0019960D01*
X0006667Y0021558D02*
X0007667Y0021558D01*
X0007667Y0023157D02*
X0006667Y0023157D01*
X0006667Y0024755D02*
X0007667Y0024755D01*
X0007667Y0026354D02*
X0006667Y0026354D01*
X0006667Y0027952D02*
X0007991Y0027952D01*
X0008716Y0059923D02*
X0006667Y0059923D01*
X0006667Y0061521D02*
X0007667Y0061521D01*
X0007667Y0063120D02*
X0006667Y0063120D01*
X0006667Y0064718D02*
X0007667Y0064718D01*
X0007667Y0066317D02*
X0006667Y0066317D01*
X0006667Y0067915D02*
X0007667Y0067915D01*
X0007667Y0069514D02*
X0006667Y0069514D01*
X0006667Y0071112D02*
X0007667Y0071112D01*
X0007749Y0072711D02*
X0006667Y0072711D01*
D20*
X0019667Y0096800D03*
X0059667Y0146800D03*
X0074667Y0081800D03*
D21*
X0038867Y0047000D02*
X0019967Y0047000D01*
X0035267Y0032600D02*
X0035267Y0017300D01*
X0035267Y0032600D02*
X0038867Y0036200D01*
D22*
X0034367Y0041600D02*
X0045167Y0041600D01*
X0047867Y0044300D01*
X0047867Y0048800D01*
X0045167Y0051500D01*
X0034367Y0051500D01*
X0031667Y0054200D01*
X0031667Y0062300D01*
X0040667Y0071300D01*
X0040667Y0071800D01*
X0041320Y0071800D01*
X0041567Y0071800D01*
X0041567Y0072200D01*
X0060467Y0091100D01*
X0060467Y0101000D01*
X0072167Y0112700D01*
X0072167Y0117100D01*
X0074867Y0112700D02*
X0074867Y0121700D01*
X0072167Y0124400D01*
X0055967Y0124400D01*
X0054167Y0126200D01*
X0054167Y0149600D01*
X0058667Y0154100D01*
X0063167Y0154100D01*
X0064967Y0155900D01*
X0064967Y0222500D01*
X0073967Y0231500D01*
X0073967Y0238700D02*
X0073967Y0241800D01*
X0074667Y0241800D01*
X0073967Y0238700D02*
X0055067Y0219800D01*
X0055067Y0166800D01*
X0055067Y0165146D01*
X0055067Y0164900D01*
X0058667Y0161300D01*
X0058667Y0160400D01*
X0061367Y0157700D01*
X0058667Y0154100D02*
X0055067Y0157700D01*
X0055067Y0158454D01*
X0054667Y0158454D01*
X0054167Y0164900D02*
X0054167Y0165146D01*
X0054667Y0165146D01*
X0055067Y0165146D01*
X0054667Y0165146D01*
X0054167Y0164900D02*
X0035267Y0164900D01*
X0035267Y0165146D01*
X0034667Y0165146D01*
X0034667Y0158454D02*
X0035267Y0158454D01*
X0035267Y0156800D01*
X0035267Y0157700D01*
X0035267Y0156800D02*
X0035267Y0142400D01*
X0034667Y0141800D01*
X0055067Y0122600D02*
X0038867Y0106400D01*
X0038867Y0104600D01*
X0021767Y0087500D01*
X0019967Y0087500D01*
X0019967Y0086800D01*
X0019667Y0086800D01*
X0028967Y0075800D02*
X0019967Y0066800D01*
X0019667Y0066800D01*
X0028967Y0075800D02*
X0042467Y0075800D01*
X0058667Y0092000D01*
X0058667Y0101900D01*
X0066767Y0110000D01*
X0066767Y0117100D01*
X0067167Y0117100D01*
X0074867Y0112700D02*
X0070367Y0108200D01*
X0070367Y0064100D01*
X0055067Y0048800D01*
X0055067Y0046800D01*
X0054667Y0046800D01*
X0039667Y0056800D02*
X0047867Y0065000D01*
X0047867Y0071800D01*
X0048013Y0071800D01*
X0048767Y0071800D01*
X0048767Y0076700D01*
X0064067Y0092000D01*
X0064067Y0096800D01*
X0064667Y0096800D01*
X0056867Y0099200D02*
X0056867Y0117100D01*
X0057167Y0117100D01*
X0054667Y0117100D01*
X0054667Y0116800D01*
X0055067Y0122600D02*
X0058667Y0122600D01*
X0061367Y0119900D01*
X0061367Y0117100D01*
X0062167Y0117100D01*
X0065867Y0130700D02*
X0073967Y0130700D01*
X0074867Y0131600D01*
X0074867Y0154100D01*
X0069467Y0159500D01*
X0069467Y0166700D01*
X0073967Y0171200D01*
X0073967Y0171800D01*
X0074667Y0171800D01*
X0066767Y0183800D02*
X0073967Y0191000D01*
X0073967Y0191800D01*
X0074667Y0191800D01*
X0066767Y0183800D02*
X0066767Y0136500D01*
X0067167Y0136500D01*
X0062267Y0134300D02*
X0065867Y0130700D01*
X0062267Y0134300D02*
X0062267Y0136500D01*
X0062167Y0136500D01*
X0072167Y0146900D02*
X0070367Y0148700D01*
X0072167Y0146900D02*
X0072167Y0136500D01*
X0056867Y0099200D02*
X0055067Y0097400D01*
X0055067Y0096800D01*
X0054667Y0096800D01*
X0039667Y0046800D02*
X0038867Y0046800D01*
X0038867Y0047000D01*
X0034367Y0041600D02*
X0015467Y0022700D01*
X0015467Y0016800D01*
X0014667Y0016800D01*
X0019667Y0046800D02*
X0019967Y0046800D01*
X0019967Y0047000D01*
X0035267Y0017300D02*
X0035267Y0016800D01*
X0034667Y0016800D01*
X0055067Y0165800D02*
X0055067Y0166800D01*
D23*
X0061367Y0157700D03*
X0070367Y0148700D03*
D24*
X0073967Y0231500D02*
X0073967Y0231800D01*
X0074667Y0231800D01*
M02*
